<svg width="127" height="185" viewBox="0 0 127 185" fill="none" xmlns="http://www.w3.org/2000/svg">
<g clip-path="url(#clip0_28_1247)">
<g filter="url(#filter0_d_28_1247)">
<path d="M125.905 177.6C123.039 178.011 120.582 177.189 117.921 175.955C116.078 175.134 114.236 174.516 112.598 173.489C111.369 172.872 110.141 172.255 109.322 171.434C107.685 169.789 106.251 167.734 104.818 166.089C104.204 165.472 104.409 164.855 104.818 164.239C105.228 163.622 105.637 162.184 105.433 161.978C104 160.539 103.795 158.278 101.747 157.455C101.543 157.455 101.338 157.045 101.338 156.634C100.314 153.755 99.2907 150.878 98.4716 147.795V147.589C98.0624 146.355 97.6531 145.122 97.2432 143.889C96.834 142.861 96.6294 141.834 96.4248 141.011C97.2432 140.6 98.0624 140.395 98.6769 139.984C99.7 139.572 100.928 139.366 101.952 139.778C102.361 139.984 102.771 139.984 103.18 140.189L106.661 139.572C107.275 139.366 108.094 139.161 108.708 139.161L110.755 137.311L106.866 136.284C106.661 136.489 106.251 136.489 105.433 136.078C102.157 134.845 98.6769 133.816 95.401 132.584C94.7872 132.378 93.968 131.761 93.5588 131.145C92.535 129.705 91.5113 128.884 89.8737 128.678L89.0545 127.034C88.8499 126.622 88.6453 126.211 88.4407 125.8C87.8262 124.978 87.4169 123.95 86.8024 123.128C86.1886 122.1 85.984 121.278 87.007 120.455C87.8262 119.839 87.8262 119.016 87.007 118.195C86.3932 117.578 86.1886 116.755 85.574 116.139C85.1648 115.522 84.9602 114.495 83.7318 114.7C83.5272 114.7 83.1173 114.084 82.9127 113.672C80.2513 107.916 77.7946 102.366 75.1332 96.611C73.9049 93.9391 72.4719 91.2664 71.0389 88.5945C71.4481 89.0055 71.858 89.6219 72.2673 90.0336C73.4956 91.6781 74.724 93.1164 76.157 94.5555C76.5662 94.9664 77.3854 95.1719 77.7946 94.9664C78.6137 94.35 77.9992 93.7336 77.59 93.1164C77.1807 92.5 76.5662 91.6781 75.9524 91.061C78.2045 90.8555 79.023 91.4719 78.8183 93.3219C78.8183 94.1445 78.4091 94.9664 78.2045 95.7891C78.2045 96.4055 77.9992 97.0219 79.023 97.2281C79.2276 97.2281 79.4329 98.05 79.6375 98.461C79.8421 98.461 80.0467 98.461 80.0467 98.2555C80.2513 97.6391 80.6613 97.0219 80.8659 96.4055C81.4797 97.0219 81.8889 96.8164 81.8889 95.9945C82.0942 94.1445 81.8889 92.5 81.2751 90.65C80.2513 87.9781 78.4091 86.7445 75.7478 85.7164C72.4719 84.4836 69.4011 84.2781 65.9209 85.1C62.4406 85.9219 58.7555 86.539 55.0705 87.361C55.0705 87.1555 54.8658 87.1555 54.8658 86.95C54.661 85.7164 54.2516 85.511 53.228 86.3336C52.6138 86.7445 51.9996 86.95 51.3854 86.1281C50.3618 84.8945 49.9524 86.1281 49.1335 86.7445C47.9051 85.7164 46.6768 85.9219 45.4485 86.95C45.2438 87.1555 44.8343 86.95 44.6296 86.95C43.8107 86.7445 42.9918 86.1281 42.1729 86.3336C40.1257 86.3336 38.2831 86.1281 36.6454 85.1C36.4406 84.8945 36.2359 84.8945 36.0312 84.6891C35.2123 84.2781 33.5745 83.8664 33.3698 83.25C32.9603 81.811 33.3698 80.3719 33.3698 78.7281C33.3698 78.5219 33.3698 78.3164 33.5745 78.111C32.5509 77.4945 31.732 77.0836 30.7083 76.4664C31.1178 75.6445 31.5273 75.0281 31.732 74.2055C32.1415 72.9719 32.3461 71.9445 32.5509 70.711C32.7556 69.4777 32.9603 68.6556 34.3934 68.45C35.417 68.2445 36.2359 68.0389 37.2595 67.6277C38.8973 67.0111 38.8973 66.3945 38.2831 64.75C37.669 63.3111 37.2595 61.8722 36.8501 60.4334C36.8501 60.2277 37.0548 59.6111 37.4642 59.4056C38.2831 58.7889 38.0784 58.1722 37.2595 57.7611C36.0312 57.1445 35.0076 56.5277 33.7792 55.9111C33.3698 55.7056 33.165 55.0889 32.9603 54.4722C32.5509 53.4445 31.9367 52.4166 31.5273 51.3889C31.3225 51.1834 31.3225 50.7722 30.9131 50.3611C33.3698 49.3334 34.1886 48.1 33.7792 46.4556C33.3698 47.0722 32.9603 47.8945 32.5509 48.7166C32.3461 48.7166 32.3461 48.7166 32.1414 48.5111C32.1414 47.2777 33.165 46.0445 31.9367 45.0166C31.3225 45.4277 30.7083 45.8389 30.2989 46.25C30.5037 45.4277 30.5037 44.8111 30.5037 44.1945C30.2989 44.1945 30.2989 44.1945 30.0942 44.1945C30.0942 44.6056 29.8895 45.0166 29.6847 45.6334C27.6375 43.9889 25.5902 44.6056 23.7478 45.4278C21.9053 46.25 20.2675 46.6611 18.2202 47.0722C16.7872 47.4834 15.3541 48.3056 13.7163 49.1277L13.9211 48.9222L11.4643 51.1834L9.62183 54.0611L9.82658 58.5834V60.6389L11.8738 64.1334L16.173 67.8334C16.7872 68.45 17.4014 68.8611 18.0155 69.4777C19.2438 70.5056 20.0627 71.9445 19.858 73.7945C19.2438 73.7945 18.6297 73.5891 18.0155 73.5891C17.4014 73.5891 16.9918 73.7945 16.9918 74.411C16.9918 74.8219 16.7872 75.2336 16.9918 75.6445C17.606 77.289 16.5824 78.5219 15.9682 79.7555C15.3541 80.7836 14.7399 82.0164 14.3305 82.839L12.2833 84.0719L12.8974 107.711C13.1021 108.534 13.3069 109.15 13.5116 109.766C15.1494 114.905 15.9683 120.045 16.5824 125.389C16.5824 125.8 16.7872 126.211 16.7872 126.828C16.9918 128.472 17.606 129.705 19.6533 129.911C20.8816 130.116 21.4958 130.939 22.1099 131.966C22.7241 133.405 23.543 134.845 24.1572 136.489C24.9761 137.928 25.5902 137.928 26.8186 136.9C27.0234 136.695 27.228 136.489 27.6375 136.078C27.6375 137.722 28.2517 139.161 29.0706 140.189L30.9131 142.245L66.1255 144.095C64.8972 144.095 63.6689 143.889 62.4406 143.684C64.0783 143.272 65.7161 143.066 67.3539 143.066C72.0626 142.861 76.9761 142.861 81.6843 142.861C82.0942 142.861 82.7081 143.272 82.7081 143.478C83.5272 145.534 83.9364 147.589 84.7556 149.439C87.007 154.166 89.4638 158.895 91.9205 163.622C92.3304 164.445 92.7397 165.061 92.535 165.884C92.1251 167.939 93.5588 169.172 94.9918 170.405C95.6056 170.816 96.6294 170.611 97.8578 170.816C99.7 173.078 101.543 177.805 101.543 181.505C101.543 183.355 102.771 184.589 104.613 184.589C105.433 184.589 106.251 184.384 106.866 184.178C108.913 183.561 110.96 183.561 113.007 183.972C114.85 184.384 116.897 185 118.739 185C120.172 185 121.811 184.795 122.629 183.972C123.448 183.15 123.857 183.15 124.881 183.355C124.677 182.945 124.472 182.534 124.267 182.122C124.881 182.122 125.495 182.122 126.314 182.122C125.905 181.505 125.495 181.3 125.495 181.3C126.11 180.684 126.519 180.272 126.929 179.655C127.133 178.011 126.929 177.395 125.905 177.6ZM57.5271 96.4055C53.228 102.366 49.5429 108.739 46.6768 115.316C46.6768 115.522 46.4721 115.728 46.2673 115.934C44.8343 115.934 44.6296 115.934 45.2438 114.495C45.6532 112.85 45.2438 112.439 43.606 112.234C41.5587 112.234 41.354 111.822 41.354 109.972C41.354 109.355 40.9445 108.739 40.7398 108.328C40.3304 107.3 39.7162 106.478 39.3067 105.45C38.6926 102.984 38.2831 100.516 37.8737 98.05C40.5351 97.6391 42.9918 97.4336 45.6532 97.0219C45.4485 97.8445 45.2438 98.6664 45.039 99.489C46.4721 99.0781 47.7004 98.461 49.1335 98.05C49.9524 97.8445 50.7713 97.4336 51.7949 98.05C52.6138 98.6664 53.8422 97.6391 54.0468 96.611C54.0468 96.2 54.0468 95.789 54.2516 95.1719C54.8658 95.1719 55.2752 95.1719 55.6847 94.9664L58.9602 94.5555C58.3461 95.1719 57.9366 95.7891 57.5271 96.4055ZM64.6925 126.005C63.8736 126.005 63.4642 125.8 63.0547 124.772C62.4406 123.539 61.6216 122.511 60.8028 121.278C61.0074 120.866 61.4169 120.045 61.6216 119.428C62.6452 116.139 63.6689 112.85 64.8972 109.561C65.1019 109.15 65.3067 108.739 65.5114 108.122C67.3539 113.055 70.22 116.755 73.4956 120.25C73.7002 120.455 73.9049 120.661 73.7002 120.661C72.8811 122.305 74.3148 123.334 74.724 124.772C74.724 124.978 74.9286 125.389 74.9286 125.595L75.5432 127.65C72.0626 127.034 68.3775 126.416 64.6925 126.005Z" fill="white"/>
</g>
<g filter="url(#filter1_d_28_1247)">
<path d="M0 9.04445L12.8976 146.15H18.4252H102.771L114.44 0L0 9.04445ZM5.73226 13.1555L108.913 5.96111L98.6769 141.834H18.4252L5.73226 13.1555Z" fill="white"/>
</g>
</g>
<defs>
<filter id="filter0_d_28_1247" x="-0.378174" y="34.1945" width="137.378" height="160.806" filterUnits="userSpaceOnUse" color-interpolation-filters="sRGB">
<feFlood flood-opacity="0" result="BackgroundImageFix"/>
<feColorMatrix in="SourceAlpha" type="matrix" values="0 0 0 0 0 0 0 0 0 0 0 0 0 0 0 0 0 0 127 0" result="hardAlpha"/>
<feOffset/>
<feGaussianBlur stdDeviation="5"/>
<feComposite in2="hardAlpha" operator="out"/>
<feColorMatrix type="matrix" values="0 0 0 0 1 0 0 0 0 1 0 0 0 0 1 0 0 0 0.25 0"/>
<feBlend mode="normal" in2="BackgroundImageFix" result="effect1_dropShadow_28_1247"/>
<feBlend mode="normal" in="SourceGraphic" in2="effect1_dropShadow_28_1247" result="shape"/>
</filter>
<filter id="filter1_d_28_1247" x="-10" y="-10" width="134.44" height="166.15" filterUnits="userSpaceOnUse" color-interpolation-filters="sRGB">
<feFlood flood-opacity="0" result="BackgroundImageFix"/>
<feColorMatrix in="SourceAlpha" type="matrix" values="0 0 0 0 0 0 0 0 0 0 0 0 0 0 0 0 0 0 127 0" result="hardAlpha"/>
<feOffset/>
<feGaussianBlur stdDeviation="5"/>
<feComposite in2="hardAlpha" operator="out"/>
<feColorMatrix type="matrix" values="0 0 0 0 1 0 0 0 0 1 0 0 0 0 1 0 0 0 0.25 0"/>
<feBlend mode="normal" in2="BackgroundImageFix" result="effect1_dropShadow_28_1247"/>
<feBlend mode="normal" in="SourceGraphic" in2="effect1_dropShadow_28_1247" result="shape"/>
</filter>
<clipPath id="clip0_28_1247">
<rect width="127" height="185" fill="white"/>
</clipPath>
</defs>
</svg>
