<?xml version="1.0" encoding="utf-8"?>
<!-- Generator: Adobe Illustrator 28.3.0, SVG Export Plug-In . SVG Version: 6.00 Build 0)  -->
<svg version="1.1" id="Ebene_1" xmlns="http://www.w3.org/2000/svg" xmlns:xlink="http://www.w3.org/1999/xlink" x="0px" y="0px"
	 viewBox="0 0 797 398" style="enable-background:new 0 0 797 398;" xml:space="preserve">
<style type="text/css">
	.st0{fill:#031620;}
</style>
<g>
	<path class="st0" d="M208.8,398h1.7C209.7,396.7,209.1,395.9,208.8,398z"/>
	<path class="st0" d="M2.7,47.3c-0.8,1-1.5,3.9-2.7,2.3V398h208.3c0.1-0.2,0-0.4-0.4-0.3c0,0-0.1,0-0.1-0.1c1.1-0.7,2.1-1.5,3.2-2.2
		c1.4-0.8,1.4,0.3,2.2,1.7c0,0,0,0-0.1,0c-0.8-0.8-1.4-2.2-2.3-1.3c-0.1,0.8,0.3,1.5,0.3,2.2h26.9c0.4-0.6,0.8-1.2,1.1-1.8
		c0.2,0.6,0.4,1.2,0.7,1.8h2c0.2-0.5,0.4-1.1,0.5-1.7c0.8,0.6,1.6,1.1,2.4,1.7H407c2.7-2.1,10-2.1,10.3-5.2c0.1-1.8,0.8-3.3,2.5-2.8
		c1,0.3,4.4,0.8,4.9,1.7c0.5,0.8-5.1,5.7-5.4,6.1c-0.2-0.5-0.4-1-0.7-1.5c0.2,0.5-2,0.9,0,0l0,0c-1.2,0.6-2.4,1.1-3.6,1.7h95.8
		c-0.4-0.6-0.6-1-0.5-1.2c0.5-0.9,1.7,0.5,2.1,0.8c0.2,0.2,0.4,0.3,0.6,0.4h1.1c0.3-0.1,0.6-0.4,0.8-0.7c1.1-1.6,1.4-1.2,3.1-1.4
		c-0.2,0.8-0.6,1.5-1,2.1h2.3c0.6-0.9,1.7-1.6,2.7-0.8c0.3,0.2,0.6,0.5,0.9,0.8h3.8c-0.6-0.4-1.1-0.8-1.7-1.1
		c0.4-0.6,0.7-1.1,1.1-1.6c-0.6-0.5-1.2-1-1.8-1.5c0.5-0.2,3.4-1.3,3.8-1c1.3,0.9,1.8,3.3,3.4,4.4c0.1,0.1,0.8,0.5,1.7,0.9h3.4
		c-0.3-2.1-2.4-1.2-3.9-1.2c0-1.2,0-2.5,0-3.7c0.3,0,0.6,0,0.9,0c0.1,0.9,0.5,2.4,1.5,1.7c2.2-1.6,4.7-1.4,7.3-1.9
		c-1.8-1.6-4-2.1-5.7-3.7c0.3-0.2,3.5-2,3.7-0.6c0.1,0.6,0.3,2.8,1.3,2.2c1.9-1,1.8-4.6,2-6.5c-3,0.6-5.2,4.3-8.6,2.9
		c-1.4-0.6-1.8-3.2-3.4-2.9c-1.6,0.4-3.2,0.5-4.8,0.6c1-1.5,1.8-4.5,3.7-4.1c1.8,0.4,3.2,1.6,4.4,3.3c0.3-3.7,5.9-2.4,8.2-2.5
		c0.8-0.1,2-1.2,0.7-1.9c-0.9-0.5-2.6,0.6-3.5,0.9c1.8-2.9,0.5-2.7-2-2.5c-2.2,0.3-2.8,0.5-4.9-0.7c-0.7-0.4-4.1-1.6-2.5-3.2
		c1-1,2.5,0,3.6-0.9c-0.8-1-1.6-2.1-2.4-3.1c-1.8,2.8-2.5,4-5.5,2.7c-1.4-0.6,2.7-2.9,2.7-2.9c-1.2-0.8,1.7-2.2,0.4-3
		c-1.1-0.7-0.4-2.4,0.2-3.7c0.4-0.4,0.9-0.7,1.4-1.1c0.3-0.8,0.6-1.7,0.8-2.6c-2.6-0.7-4.9-0.2-7.5-0.7c2-1.8,1.8-2.6,1.1-5.5
		c-0.5-2-0.3-4.5-2.2-4.1c-2.4,0.6-5.1-2.5-4.5,3c0.2,2.5-6.2-5.3-5.2-0.4c1,4.7,5.4,3.8,6.6,8.2c-2.3-0.7-2.9-2.3-5-3.1
		c0.1,1.9,1.6,4.2-0.5,4.9c-0.7,0.2,1.4,3.9,0.8,5.2c-0.4,0.9-3.8,3-2.9,4.3c1.1,1.6,1.2,2.7-0.8,3.6c-0.2,0.1-4.1,1.9-4.5,1.1
		c-0.3-0.7,0.5-1.3,0.1-2c-0.3-0.6-2.5-0.2-3-0.2c-0.8,0-3.6,0.6-4.2-0.3c-0.5-0.8-0.4-1.9,0.4-2.3c1.1-0.5,3.6-1,3.9-2.5
		c-1.5-0.3-2.6,0.3-4.3-0.1c1.7-0.8,3.2-1.7,4.4-3.4c1.2-1.6,0.4-3.2,0.2-5.1c-1.1,0.3-3.6,1.6-4,2.9c-0.3,0.8,1.9,1.6,2.3,1.8
		c-3.6,1.7-5.8,3.5-9.8,3.6c-0.8,0-2.8-1.1-1-1.6c1.2-0.4,2.6-0.4,3.8-0.6c-0.4-0.2-4.5-1.1-4.5-0.7c0-0.4,0.7-3.1-0.6-2.1
		c-1.3,1-1.3,1.6-2.9,1.3c0.6-1.5,2-2.3,2.2-3.9c0.2-1.5,0.1-3.1,0-4.5c1,0.1,2,0.3,3,0.5c0.1-1,0.3-1.8,0.2-2.8
		c4.1,0.1-0.6-5.1,1.5-7c-0.7,0.3-1-1.4-1.4-1.8c-0.7-0.7-1.5,1.4-2.6,0.7c-1.8-1.1,1.2-2.9,2-2.8c1.2,0.1,2.1,0.4,3.2,0.9
		c-0.1-3.3-1.4-2.1-3.1-3.6c-0.4-0.3-0.1-4-1-3.4c-2.1,1.4-2.7-1.9-3.9-3.3c-1.3-1.4-1.8-0.1-2.8,1.2c-0.5-1.4-1.4-4.9,0.2-5.8
		c1.5-0.9,3.6,0.8,4.5-0.6c-0.7-0.4-1.3-0.6-2.1-0.9c1.9-2.7,4.3-3.4,3.1-7.6c-0.4-1.5-1.7,0.8-2.4,0.6c-1.9-0.4-1.4-1.7-1.1-3.5
		c-1.5,0.3-2.1,0-2.5,1.4c-0.4,1.4-0.7,2.9-1.1,4.3c-0.4,1.4-1.6,5-3.2,2.7c0.8-0.5,1.4-0.7,1.7-1.8c0.4-1.6-0.1-0.6-0.3-1.9
		c-0.1-1.2,0.1-2.5-1.3-2.4c1.4-2,3.9-1.4,2.3-4.9c-0.5-1.2,7-0.5,7.6-0.8c-1-1.9-4.3-1-6-1.1c-1.6-0.1,3-3.2,3.3-3.4
		c1.6-1,10.1-7.8,7.7-1.8c2.4,0.3,4.2-0.9,6.2-2.3c0.3-0.2-0.1-1.4,0.1-1.8c0.5-0.9,1.1-1.6,1.7-2.5c-0.9,0.1-1.8,0.2-2.7,0.3
		c0.3-2,1.1-1.2,2.6-1c1.6,0.1,3-0.4,4.5-0.8c-1.5-1.7-4-1.9-5.8-3.1c0.7-0.7,3.3-2.2,3.4-3.3c0.1-1.9-1.2-0.6-1.9-0.2
		c-2.7,1.8-5.9,1.5-8.9,1.4c-2.8-0.1-5,1.3-6.8-1.7c-1.4-2.3,0.5-5.1,1.2-7.7c-3.6,0.1-5,1.2-7.9,3.6c-1.6,1.3-5.3,0.4-7.2,0.4
		c-2.2,0.1-2.2,2.8-4.8,2c-0.6-0.2-6.3-2-4.3-3.8c1.1-0.9,4.5-4.5,5.8-4.4c1.5,0,2.8-0.5,2-2.5c-0.6-1.8-1.1-2.6,0.4-3.9
		c1.5-1.2,0.8-3,0.8-4.9c-3,3-5.1,6.1-8.9,7.9c-2.5,1.2-4.6-6.3-0.5-6c3.2,0.2,1.2-2.8,2.5-5.7c1.7-3.8,0.9-8.6-1.5-11.7
		c-1.3,3.2-2,7.3,1,9.4c-2.2,1.8-3.6,3-5.4,0.2c-0.4-0.6-5.6-0.1-3.3,3.1c-3.4,0.2-4.3,0.1-6.5,3.3c-1.1,1.7-2.3,1.1-3.3-0.5
		c-1,1.4-0.8,3.4-2.3,4.2c-1.5,0.9-3.1,0.9-4.6,1.9c1.8,2.1,2.4,2.5,4.9,2.5c-1.1-2.2,0-1.8,1.5-2.5c1.3-0.6,2.7-1.6,4.1-0.5
		c1.6,1.3,2.1,0.4,3.9-0.9c1.2-0.8,2.2-2.1,3.3-3.2c1.1,2-4.2,6.9-5.7,7.2c-3.3,0.8-2.7,0.8-2.1,4.3c-2.5-0.3-2,0.4-3.7,2
		c-1.3,1.1-2.9,0.1-4.3-0.2c-1.5-0.3-0.7-1.6-1.3-2.9c-0.4-0.9,0.2-2.6-0.3-3c-0.5-0.4-3.1,0.4-3.2-0.5c-0.1-0.9,2.2-3.3-0.2-2.5
		c-2,0.7-0.7,2.6-2.3,3.8c-1.1,0.8-2,0.3-3,1.4c1.8,0.6,3.1-1.1,4.9-1c2.6,0.1-0.1,3.1-0.7,2.9c-1.4-0.5-6.5,3.8-5.4,5.4
		c2,3.1,6.6,1.4,9.2,1.2c2-0.2,2,2.8,2,4.8c0,2.5,0.5,1.8,2.3,1.2c0,1.6,0.1,3.2,0.1,4.8c-2.3-0.3-4.6,0.5-6.6,2.2
		c-2.3,2.1-2.2,0.7-4.6,0.2c-3.4-0.7-7.7,2.7-11,3.8c0.3,0.4,2.2,3.2,2.9,1.9c0.6-1,1.2-1.9,2.1-0.8c1.8,2.4,3.3,3.5,6.1,3.5
		c1.7,0,6.3-2.6,6.7-0.4c0.3,1.9-4.8,2.8-5.7,4c-1.8,2.3-1-1.4-2.6-1.8c-3-0.7-2.6,2.7-4.7,4c-2.7,1.6-5.2-1.8-7.9,0.7
		c-1.2,1.2-3.3,0.5-2.1,3.3c-1.8-0.2-3.6,0.3-2.9-2.5c-2,1-3.1,2-5.3,2.5c0.3-1.3,0.6-2.4,0.6-3.7c-1.4,0.4-2.8,0.7-4.3,1
		c0.3-1.3,0.1-4.1,1.6-4.5c1.3-0.3,2.8,0.2,4.1,0.7c0.3-2.3-0.2-1.6,1-2.8c0.7-0.7,0.7-1.7,0.4-2.7c-0.6-1.6-0.6-3.7-1.2-4.9
		c-1.7,1.6-3.6,3.1-5.2,4.7c-0.9,1-0.1,4.4-1.6,4.2c-2.1-0.3-2.7-0.5-4.9,0.6c-1.8,0.9-2,2-4.2,2.3c0.9-3.1,2.3-3.9,5.1-4.7
		c1.9-0.6,3.5-3.2,5.3-4.3c1.9-1.3,2.9-1.6,2.4-4.5c-0.2-1.2-0.3-1.2-1.2-1.8c-1-0.7-1-1.7-1.3-2.9c-1.1,3.1-1.2,4.5-3.8,5.8
		c-2.2,1.1-3.5,0.6-5.8,0.6c-1.5,0-2.6,0.9-3.4,2.4c-0.5,1-1.2,4.6-2.9,3.2c-2-1.7,0.4-4.4-1.1-6.5c-1.3-1.7-1.3-3.7-2.6-5.4
		c-1.6-2.1-2.1-3.8-2.4-6.7c-0.2-2,0-4.7-2-4.4c-2.1,0.3-4.4,0.4-4.5,3.4c-0.1,2.5,0.6,4.9,0,7.4c-0.6,2.1-2.5,3.6-0.2,4.6
		c1.3,0.5-1,1.1-1.1,1.4c-0.6,1.5-1.5,3.1-2.7,3.5c-1.5,0.4-2,2.2-3,3.4c-1.5,1.8-4.2,0.7-6.1,0.9c-2.2,0.2-4,1.1-6.3,0.7
		c1.6-3,4.8-3.9,7.7-3.7c1.4,0.1,2.7,0.5,4.1,0.6c0-0.9,0.4-3.5-0.4-3.8c-0.9,3.8-1,1.6-3.3,2.8c0.3-1.3,0.5-2.6,0.8-3.9
		c-1.3,1.5-1.9,3.7-3.5,1.7c-0.9-1.1-3.8,2.9-4.3,3.4c0.5-4.2,1.6-7.4,0.6-11.4c-1.2,0.9-2.4,1.7-3.7,2.5c-0.1-0.5-0.2-3.3-0.5-3.5
		c-1.5-1.4-1.1,3.1-2.3-0.5c-0.7-2.1-1.3-4.6-2.4-6.4c-1.5-2.3-2,1.1-3.6,1.6c-0.6,0.2-1.9-3-2.1-3.4c-0.4,2-1.2,5.7-2.8,6.8
		c-1,0.7-1.9-2.1-2.3-2.9c-1,2.8-1.3,5.9-2.4,8.6c-0.6,1.5-4,0.6-5,0.4c1,1.3,1.2,3,2.3,4.1c1.1,1.1,2.4,1.7,2.9,3.5
		c0.2,0.9,1.1,4.3,0.5,4.9c-0.7,0.7-2.6-2.3-3-2.8c-0.7,2.3-1.5,3.2-3,4.9c0.7-0.2,5.6-1.2,2.8,1.4c-0.6,0.5-4.1,4.2-4.6,2.1
		c-0.3-1.7,0-5.3-2.4-4.7c-2.1,0.6-1.7-0.5-1.8-2.6c-0.1-2.1-1.7-2.1-3-1.5c-1.6,0.7-5.7-1.4-5.4,1.6c0.2,2.4,2.1,3.7,0.9,6.3
		c-1.2,2.7-2.7,2.3-3.7-0.2c-1.3,2-1.3,4.5-3.1,6.4c-0.3,0.3-4,3.7-4.2,3c-0.5-2.5-1.6-1.8-3.1-1.1c-1,0.5-4.2-0.3-5.2-1.1
		c-2-1.6-1.6-5.3,0.8-5.8c1.9-0.4,3.8,0.1,5.7-0.7c3.4-1.5,7.4-7,7.3-11.4c-0.8,0.5-1.5,1.5-2.3,2c-0.8,0.5-0.5-1.6-1.1-1.8
		c-1.5-0.5-4.4,5.9-4.4,7.4c1.1-0.7,2.3-1.2,3.5-1.8c-2,3.5-5.3,7.2-7.8,2c-0.8-1.7,2.9-3.8,3.6-5.1c1.2-2.1-0.8-3.5-2.1-4.8
		c3.9-3.3,1-4.3-0.7-7.7c-0.4-0.7,0.4-2.6,0.9-3.2c0.7-0.9,1.7-0.1,2.6-0.1c-0.1-0.7-1.5-1.9-1.6-1.8c0.2-1.1,0.1-2.3,0.2-3.4
		c0.2-2.8,2.3-4.1,2.4-6.9c-1.6,0.4-3.4,2.1-5,2.1c-1.2,0-2.1-0.1-2.1,1.8c0,1.5-5.3,1.5-6.2,1.6c-1.5,0.2-1.5,0.2-2.5-0.9
		c0-0.3,0.2-0.6,0.4-0.7c1.7,0.1,2.1-1.6,2.7-3.1c0.6-1.6,1.8-2.4,3-3.2c1.7-1.1,3.8-5.5,3.2-7.7c-2.4,1.5-1.8-3.6-4.5-3.4
		c-1.3,0.1-1.2-2.7-2.9-1.5c-1,0.8-1.5,1.5-2.8,1.8c0.3-1,0.7-2.1,1-3.2c-2.3,2-7.9,6.7-3.7,10.1c-0.7,0.4-3.7,1.2-3.1,2.7
		c0.7,2,0.6,2.6,0.4,4.9c2.8-1.1,2.8,0,3.8,2.6c-2.2,0.6-4.1-1.6-6.3-0.1c-2.3,1.5,0.9,4.7-1.5,5.9c-0.9,0.5-2.7,2-3.3,1.1
		c-0.4-0.5-0.9-0.8-1.4-1.2c-1.6-1.2-0.2-2.7-0.4-4.5c-1.4,0.5-2.3,1.2-3.4,2.2c0.9-4.3-1.2-1.3-3.4-1.8c-1.1-0.2-2.3-0.8-3.1-1.7
		c-0.8-0.9-2.4-0.4-3.3-0.5c1.5-2.7,2.3-4-0.9-3.2c-1.9,0.5-2.2,2.8-3.9,3.1c-0.4,0.1-3.9,0.2-3.4-1.2c0.9-2.5,2.5-2.5,4.5-3.1
		c2.3-0.7,4.6-1.9,6.8-3c1.9-0.9,1.6-1.8-0.4-1.5c-0.5,0.1-4.7,0.6-4.5-1.2c0.3-2.6-1.6-2-3.1-2.4c2.1-2.2,4.7-3.9,7.6-3.9
		c2.8,0.1,4.2-1.2,6.6-2.8c0.9-0.6-0.2-2.3-0.7-2.6c-1-0.5-2.1,0.5-3,1c-2.8,1.7-2.7-0.7-1.5-2.9c-3,0.2-4.6,2.5-7.6,2
		c0.8-2,1.4-3.1,2.7-4.5c-1.7-1.1-2.9-1.8-4.9-2c0.4-2.3,3.3-5.7,3.1-1.3c0.7-0.7,2.7-1.7,1.4-2.9c-0.8-0.7-1-2.3-0.9-3.4
		c0.2-3.1,2.4-4.2,2.6-7.3c-1.1,1.2-2.7,1.6-3.2,3.3c-0.5,1.9-0.4,2.9-2.3,3.3c-3.7,0.7-4.8-3-7.1-5.6c-0.8,1.6-0.4,3.8-1.4,5.1
		c-1.2,1.6-3.2,0.1-4.7,0.8c-3.7,1.8-4.4,8.1-7.4,11.2c-0.8-3.7,2.2-6.4,1.9-10.1c-0.2-2.8-1.2-5.9-3.6-3.2
		c-4.4,5-2.7,12.9-4.4,19.2c-1.9-1.8-3.1-6.3-5.8-4c-2.1,1.7-6,3.6-5.4,7.3c0.6,3.7,4.6,4.3,0.8,7.3c-3.5,2.8-6.3,4.8-7.7,9.6
		c1.2,0.1,2.5,0.2,3.7,0.3c-0.7,1.3-1.1,2.7-1.5,4.2c1.9,0.6,3.1,0.5,5,0.1c1.4-0.3,1.1,0.7,2.3,1.3c1.5,0.6,4.3-1.7,6.1-1.8
		c-1.5,1.4-1.2,2.6-2.3,4c-0.9,1-2.6,0.6-3.7,0.4c0,1.6,0.8,2.9,1.3,4.3c-1.9,0.6-5.6,0.6-6.3,3c-1,3.4-2.1,6.9-4.7,8.6
		c-1.4-4.5-4.2-2.8-7.4-1.7c0.4-1.5,0.4-4.2,1.7-4.9c0.4,4.1,1.1-0.4,2.1,0.2c2.8,1.8,3.5-0.2,4.9-3.2c-1.1,0.3-2.6,1-3.8,0.5
		c-0.8-0.4-0.3-2.9-0.4-3.9c-1.5,1.4-0.7,2.2-1.7,3.7c-0.9,1.4-2.8,1.2-3.9,2.5c-3.2,3.8-3.9,9.8-5.5,14.6c0.9,0.2,2.3-1.1,2.6,0.4
		c0.3,1.1,1.1,3.1-0.3,3.7c-0.3,0.1-4.4-2.1-4.5-2.4c-0.3-0.8,0.4-1.6,0.8-2.1c0.8-1.2,0.2-2.7,0-4.1c-1.6,0.7-3.2,1.3-4.7,2.3
		c0.3-0.5,0.6-0.9,0.8-1.2c-0.7-0.7-1.4,0.3-2,0.8c0.8-4.1-2.8-1.9-4.2-2c-0.7,0-1.9-1.3-2.7-1.6c-0.6,1.8-2.3,0.5-3.5,0.5
		c0.3,0.9,0.2,1.5-0.4,2c-0.3-1.8-1.2-1.7-2.4-1.9c-1.7-0.3-1.5-3.6-0.3-2.9c0.1,0,2.6,4,1.2,0.2c-0.8-2,1.5-0.5,1.8-0.9
		c-0.4-0.8-2-2.8-1.9-3.9c0.9,0,1.6-0.5,2.4-1c0.3-0.7,0.7-2.3,1.4-2.3c0.5,0,0.4-1.4-0.3-0.9c-0.6,0.4-0.6,2.1-1.4,1.9
		c-1.2-0.3-0.7-1-2-0.3c-0.3,0.1-2.1,0.6-2.3,0.5c-0.7-0.4-0.6-2.3-1.5-1.5c-1.6,1.4-2,2.2-3.5,0.5c-1-1.2-1.6-2.8-3.1-1.3
		c-1.4,1.4-1.2-0.3-2.4-0.7c-0.8-0.3-1.4-2.9,0.1-2.6c0.3,0,3.6-0.2,2.1-1.5c-0.7-0.6-2.3-0.9-3.2-0.8c-1.2,0.2-1-1.1-1.6-2.1
		c0-0.1-1.7-1-1.2-1.7c0.4-0.6,1.2-2.5,1.8-2.7c0.3,0.6,0.3,1.2,0.2,1.9c1.3-1.2,2.9,2,3,1c0.3-1.5-0.7-3.1-0.8-4.3
		c-0.2-1.2,0.2-1.8-0.7-2.5c-0.4-0.3-1.4-1.3-1.3-2.1c0.1-2.4-0.3-3.4-0.6-5.7c2.4,0.3,0.6,3.8,2,4.7c0.5,0.3,1.1-0.3,1.6,0.2
		c0.7,0.5,1.4,2.5,2.1,3.3c1-1.2-1.1-4,1.2-2.5c-0.1-1.2-0.4-2.3-0.9-3.1c-0.6-0.8,0.4-1.2,0.6-1.8c0.8-2.3,2,1.8,2.6,1.9
		c0.6-0.8-0.5-2.4,0-2.8c1.3-1,0.1-1.4-0.5-2.9c-0.4-1,3.4,0.1,3.8,1c0.5-0.6,0.4-2.5-0.1-2.9c-1.7-1.4,0.2-3.2,1-4.4
		c0.2,0.2,2.5,2.8,2.3,0.4c-0.2-2.4-0.1-1.4,1.5-2.7c-0.9-1.7-2.2,1-2.8-1.3c-0.3-1.1-1.4,0.6-1.6,0.8c-0.6,0.5-1.3-0.7-1.8-1
		c-0.8-0.5-1.8-1.9-0.3-2.7c0.6-0.3,1.2-0.6,1.7,0.2c0.7,1.2,1.1,1,2.2,1.1c-0.3-2.1-1.4-2.1-2.6-2.5c0.7-2.4,2.4-1,3.7-1.4
		c-0.6-2.7-0.3-1.2,0.8-3.8c-0.3,0-2.8,1.4-2.8,1.4c-0.9-2.3-1.6-0.1-2,1.4c-0.2,0.7-1.2-1.1-1.7-0.9c-1.6,0.7-2,1.8-1.9,4
		c-1,0.1-1.6-1.4-2.5-1.2c-1.1,0.3-1.2,2.7-2.6,2.5c-0.7-0.1-1.8,1.5-2.5,1.7c-0.7,0.3-1.8-0.8-2.3,0.6c-0.7,2.2-4.1-2.2-4.7-2.4
		c-1.4-0.4-2.1-0.3-3.3-1.4c-1.2-1.2-0.7,1.6-1.6,1.5c0-0.4,0.3-4.2-0.8-2.6c0.1-0.1-1.8,4-1.2,1.5c0.6-2.3-1.6-1.4-2.4-1.8
		c-1.5-0.6-1.8-6.2-3.7-2.6c-0.8-2-0.9,1.3-1.5-1.7c-0.7,0.2,0.5,1.4-0.6,1c-0.2-0.1-1-1.6-1-1.8c0.3-1,0-3.8,1-1.7
		c0.9-0.9,1.5-1.3,2.1,0.2c0.4-1.1,0.9-4.1,2-3.9c0.9,0.1,1.4-1.4,2.5-1.1c2.4,0.7,4.6-2.8,3.7,3.1c1.5-0.5,0.9,1.9,1,3.1
		c0.8-1.7,0.2-3.7,0.5-5.5c0.7,0.7,1.3,1.3,2.2,1.1c-0.3,0.9-0.6,1.9-0.8,2.8c0.5-0.3,0.7-1.7,1.5-0.9c-1.3,3.8,2.7,3.3,1.7,0.9
		c-2.3-5.5,2.6-0.6,3.4-1.4c1.8-1.8-2.1-4.4,0.3-4.9c0.6-0.3,0.9,0.1,1,1.3c0.4-0.5,0.8-0.6,1.3-0.5c0.4,0,0.5-0.3,0.5-0.9
		c-0.3-1.9,0.1-1.5,1.4-2.5c-0.6-0.3-1.2-0.3-1.7,0c-0.4-0.7-1-1.8-1.5-0.6c-0.8,1.8-1-1-2,0.3c-0.4-1.7-0.7-5.6-2.6-5.4
		c0-0.8,1.9-2.7,2.4-2c0.2,0.4,2.5,4.1,2.5,2.5c0-0.5-0.7-1.3-0.9-2c-0.2-1,0.1-1.4,0.4-2.5c-0.8,0-0.7,1-1.2,1.6
		c0.2-1.4,0.7-2.5,1.6-3.1c0.8,0.7,1.1,2.6,1.6,3.7c2.1-0.4,0.6-3,0.1-4.5c-0.5-1.6,0.9-3.1,1.9-1.1c0.8-0.2,1.3-0.7,0.7-1.7
		c-0.7-1.2,0.6-2,1-2.7c-0.8,0-1.3,0.9-2,1.3c-0.2-3.4-0.6-0.8-0.9,0.3c-0.5,1.9-2.2,1-3.1,0.5c0.4,1.2,1.1,3.2,0,4.1
		c0.3-2.7-2-1.7-0.5-0.9c0,0-1.2,2.3-1.2,2.3c-0.1-1.3-0.9-0.8-1.4-1.1c-1.4-0.7-0.9-0.2-1.8,1c-0.3,0.4-1.5,1.7-1.8,1.9
		c-0.9,0.5-0.2,1.7-1.1,2c-0.3-1.2-0.3-2.5-0.9-3.4c-1.3-2-0.6-2.7-0.8-5.1c0.7,0.3,1.4,0.5,2.1,0.8c0.1-0.6-0.5-3-0.5-3.9
		c-0.1-2.2,0.6-2,1.9-2c-0.1-0.4-0.6-2.2-0.3-2.7c0.2,1.2,0.7,1.5,1.4,0.7c0,1.1-0.6,1.9,0,2.9c0.5-1,3.1-1.2,1.7-3.8
		c-1.3-2.6,1.4-3.9,2.6-3.8c0-0.8-0.2-1.4-0.8-1.7c0.2-1.2,1.1-1.5,1.5-2.4c-1.3,0.4-2.3-0.2-3.5,0.4c-0.7,0.4-0.6,1.6-1.2,2
		c-0.6,0.5-1.3,0.5-2,1.2c-1.8,1.7-3.1-2.4-2.4-4.6c0.5-1.5,1.3-0.3,1.8,0.3c0.3,2.2,0.9,0.6,2.1,1.7c0.2-3.7-3.3-4.4-1.5-7.7
		c0.5,0.6,0.9,1.2,1.4,1.7c0.3-1.3,1-2.5,0.1-3.3c-1.3-1.1,0.5-2.6,0.8-4.1c-1.2,0.5-1.9,3-2.5,4.4c-0.1-0.6-0.7-3.2-1.4-2.1
		c-0.5,0.8,1.5,2.3,0.1,2.6c-0.7,0.2-3.4,0.4-3.1,2.5c2.8,0,1.4,3.3,1.1,5.2c-0.4,2.3-1.5,0.8-1.7-0.7c-0.1-0.8-0.5-1.3-1.1-1.3
		c-0.9-0.1-0.5-1.8-0.6-2.7c-0.8,1.3-0.3,3.2-1.1,4.5c-1.3-1.3-1.2-0.2-2.5-0.7c-1-0.4-1.2-2.5-2.2-3.1c0.6-1.1,1.1,0,1.8-0.3
		c0.2-1.6-2.3-2.6,0.2-3c-0.4-1.1,0.2-1.7-0.2-2.6c-1-2-0.6-2.2,0.8-2.7c-0.9-1-1.8-0.3-2.8,0c0-0.6,0.2-1.2,0.4-1.7
		c-0.4-0.7-2-0.2-2.2,0.4c-0.5-1-0.8-0.7-1.5-0.2c-1.2-1.5-0.1-1.7,0.2-3.4c0.2-1.1-0.2-3.4-0.6-4.3c-0.4-1.1,0.9-1.1,0.9-2.2
		c-1.3,0.6-2.7,1.6-2.3-1.4c0.2-1.7-0.5-3.5-1-5.4c-0.4,2.4,0,6-0.8,8c-0.1-1.6-0.5-2-1.5-1.4c-1.3,0.7-1.5-2.5-2.3-3.1
		c0,1.2,0,1.6-0.7,2c1.5,1.6,1.3,1.6,0.1,3.3c-0.7,1,0.1,1.2,0.6,1.2c0.8,2.7,0.5,2.3-0.7,4c-0.7,1-1.2,2.5,0,3.4
		c0.5-1.4,2.1-1.3,1.5,0c-1.1,2.3-2.5,1.2-4,1.5c1.5,1.7,0.5,1.3,0,3c1.2,0,2-0.5,1.6,1.7c0.7,0.4,1.5,0.3,2.2,0
		c0.4,1.5-0.8,1.6-1.2,2.6c0.4-0.2,2.2-1,1.9,0.5c-0.2,1.1-1.5,0.1-1.9,0.7c-0.5,0.6-0.9,2.4-1.7,1.2c-0.9-1.3-0.9-0.1-1.5,0.7
		c-0.5,0.7-1.4-0.6-1.1-1.4c0.2-0.5,1.8-1.4,0.8-2c-1.1-0.7-1,2.6-1.9,1.3c-0.7-1-0.5-3.5-1.6-3.8c0.1,1,0.5,1.8,0.8,2.7
		c0.5,1.5-0.8,1.7-0.9,3.1c0.6,0.6,1.2-0.4,1.8-0.3c0.6,0.1,0.6,3,0.6,3.6c-0.1,1.1-0.9,1.3-1.5,1.4c-1.6,0.4-1.1-0.1-2,1.2
		c-0.2-1.4-1.6-1.3-1.3-2.8c-0.5-0.4-0.9,0.6-1.4-0.1c-0.6-1,0-1.7-1-1.8c-0.6,0-1.8,3.6-1.4,0.5c-1.9-0.1-1.9-0.2-2.5,2.5
		c-1,0.1-0.8-2.1-1.8-2.5c0.2,0.6,0.3,1.2,0.5,1.7c-0.5,0.6-0.9-0.4-1.4,0c1,0.6,1.5,0.9,0.8,2.4c0.7-0.7,1-0.4,1.2,0.7
		c0.4-0.2,0.7-0.7,0.7-1.5c1.1,0.7,1.8,4.7,1,5.9c0.3,0.5,0.6,0.7,1,0.5c1.1,0,0.2,1.2,1.2,1.6c0.3,1.5-1,0.4-1.2,1.2
		c2.5,1.8-0.7,1.3-0.4,3.3c0.2,1.6,1.9,0.7,2.4,0.4c3.5-2.2,0.5,2.6-0.6,4c0.7,0.5,0.9,1.3,0.6,2.3c0.8-0.7,1.6-1.5,2.5-1.8
		c0.9,3.1-4.1,1-1.5,3.6c0.4,0.3-0.1,2.6-0.5,2.8c-0.3-0.1-0.6-0.3-0.9-0.7c-0.4-0.9-1-0.1-1.6,0.1c0-1.1,0.4-1.9,1.2-2.3
		c0-0.1-1-3.4-1.3-1.9c-0.3,1.3-1,1.2-1.8,1.1c-1.5-0.2-0.4-1.5-2-0.5c0.1-0.8,0.2-1.6,0.3-2.4c-0.7,0.2-0.5,1.3-1.1,1.6
		c-0.2-0.2-1.5-2.2-1.7-2c0.3,0.6,0.5,1.3,0.8,1.9c-1,0.1-1,1.5-1.6,2.3c-0.9-0.4-0.9-2-2-2c0.2,0.6,0.3,1.2,0.3,1.7
		c-0.9-0.4-1.7-0.8-2-1.4c-1.2-2.8-2.1,1.8-3.8,0.2c0.8-2,2.8-5,4-6.7c-1.2-1.3-2.4,0.5-3.4,1.4c1.4-7.1-4.9-3.3-7.3-3.4
		c-1.2,0-3.4-2.2-4.7-2.8c-1.1,3.1-4.1,0.9-6.2,0.9c0.6,1.5,0.3,2.6-0.8,3.4c-0.5-3.2-2.1-2.9-4.2-3.3c-2.9-0.5-2.6-6.2-0.6-5.1
		c0.2,0.1,4.5,7,2,0.3c-1.3-3.6,2.6-0.9,3-1.5c-0.7-1.4-3.4-4.9-3.2-6.8c1.6,0,2.8-0.8,4.2-1.7c0.5-1.1,1.2-4,2.4-3.9
		c0.9,0.1,0.8-2.4-0.4-1.6c-1.1,0.7-1,3.7-2.5,3.3c-2-0.5-1.2-1.7-3.4-0.5c-0.5,0.3-3.6,1-4,0.8c-1.2-0.7-1-3.9-2.5-2.5
		c-2.7,2.5-3.5,3.9-6.1,0.8c-1.7-2-2.8-4.9-5.3-2.3c-2.4,2.5-2-0.5-4.1-1.2c-1.4-0.5-2.4-5,0.1-4.6c0.6,0.1,6.3-0.4,3.6-2.6
		c-1.3-1.1-4-1.6-5.5-1.3c-2,0.4-1.7-1.8-2.8-3.7c-0.1-0.1-2.9-1.7-2-3c0.8-1.1,2.1-4.4,3.1-4.8c0.4,1,0.6,2.2,0.4,3.4
		c2.3-2.1,4.9,3.5,5.3,1.8c0.5-2.7-1.1-5.4-1.4-7.5c-0.3-2,0.4-3.1-1.3-4.3c-0.8-0.6-2.4-2.2-2.3-3.7c0.1-4.1-0.6-5.9-1-9.9
		c4.2,0.5,1,6.7,3.4,8.1c0.9,0.5,1.8-0.5,2.8,0.3c1.1,0.9,2.4,4.4,3.6,5.7c1.7-2.2-1.8-6.9,2-4.3c-0.1-2.1-0.6-4-1.6-5.4
		c-1-1.4,0.7-2.1,1-3.1c1.5-3.9,3.5,3,4.5,3.4c1-1.3-0.9-4.1,0-4.8c2.2-1.7,0.3-2.5-0.9-5.1c-0.8-1.8,5.8,0.1,6.6,1.7
		c0.9-1,0.6-4.3-0.2-5c-2.9-2.5,0.4-5.6,1.8-7.6c0.3,0.3,4.4,4.8,4.1,0.6c-0.3-4.2-0.1-2.3,2.5-4.6c-1.5-3-3.7,1.7-4.8-2.2
		c-0.5-2-2.4,1-2.8,1.4c-1.1,0.9-2.3-1.2-3.2-1.8c-1.4-0.9-3.1-3.2-0.5-4.7c1-0.6,2.1-1,2.9,0.4c1.3,2.1,1.8,1.7,3.9,1.9
		c-0.5-3.6-2.5-3.6-4.5-4.4c1.2-4.2,4.2-1.8,6.5-2.4c-1-4.7-0.4-2.2,1.4-6.6c-0.5,0.1-4.8,2.5-4.8,2.5c-1.6-3.9-2.7-0.1-3.4,2.4
		c-0.3,1.2-2-1.9-3-1.5c-2.7,1.2-3.5,3.2-3.3,6.9c-1.7,0.2-2.7-2.5-4.3-2c-1.9,0.6-2.2,4.7-4.4,4.3c-1.2-0.2-3.1,2.6-4.3,3
		c-1.3,0.5-3.1-1.3-3.9,1c-1.3,3.8-7.1-3.9-8.2-4.2c-2.5-0.7-3.7-0.4-5.8-2.4c-2.1-2-1.2,2.8-2.8,2.6c0-0.8,0.5-7.2-1.4-4.5
		c0.1-0.2-3.2,6.9-2,2.6c1-3.9-2.7-2.5-4.2-3.1c-2.5-1-3-10.8-6.4-4.5c-1.4-3.5-1.6,2.3-2.6-3c-1.3,0.4,0.8,2.4-1.1,1.8
		c-0.3-0.1-1.8-2.8-1.7-3.1c0.6-1.7,0-6.6,1.7-2.9c1.6-1.5,2.6-2.3,3.7,0.4c0.7-2,1.5-7.1,3.5-6.8c1.6,0.3,2.4-2.5,4.3-1.9
		c4.2,1.2,8-4.9,6.4,5.3c2.5-0.9,1.6,3.2,1.7,5.4c1.3-3,0.3-6.4,1-9.6c1.2,1.1,2.3,2.3,3.9,1.9c-0.5,1.6-1,3.2-1.5,4.8
		c1-0.6,1.3-2.9,2.6-1.5c-2.2,6.5,4.6,5.7,3,1.5c-4-9.6,4.5-1.1,5.8-2.4c3.1-3.2-3.7-7.6,0.6-8.5c1-0.5,1.6,0.3,1.7,2.2
		c0.6-0.8,1.4-1.1,2.2-0.9c0.7-0.1,0.9-0.6,0.8-1.6c-0.4-3.3,0.2-2.6,2.4-4.3c-1-0.4-2-0.4-3-0.1c-0.6-1.1-1.7-3.1-2.6-1
		c-1.3,3.1-1.7-1.7-3.5,0.5c-0.6-3-1.3-9.8-4.5-9.4c0-1.4,3.4-4.7,4.2-3.4c0.4,0.7,4.4,7.1,4.3,4.4c0-0.8-1.2-2.3-1.5-3.4
		c-0.4-1.8,0.1-2.5,0.7-4.3c-1.3,0.1-1.1,1.8-2.1,2.8c0.4-2.4,1.3-4.4,2.8-5.4c1.4,1.1,1.9,4.4,2.7,6.5c3.6-0.6,1.1-5.3,0.2-7.8
		c-0.9-2.8,1.5-5.3,3.3-1.9c1.4-0.4,2.3-1.1,1.2-3c-1.2-2.1,1-3.4,1.8-4.7c-1.4-0.1-2.2,1.6-3.4,2.2c-0.4-6-1-1.4-1.5,0.5
		c-0.9,3.2-3.8,1.7-5.4,0.9c0.6,2.2,1.9,5.6,0,7.1c0.6-4.6-3.5-2.9-0.9-1.5c0,0-2.1,4-2.2,4.1C53.4,86.7,52,87.6,51,87
		c-2.4-1.2-1.5-0.3-3.1,1.7c-0.5,0.7-2.5,2.9-3.2,3.2c-1.6,0.9-0.3,3-1.9,3.4c-0.4-2.1-0.5-4.3-1.6-5.9c-2.3-3.4-1-4.7-1.4-8.9
		c1.2,0.5,2.4,0.9,3.6,1.4c0.2-1.1-0.9-5.3-0.9-6.8c-0.2-3.9,1.1-3.6,3.3-3.6c-0.1-0.7-1.1-3.8-0.4-4.7c0.4,2.1,1.2,2.5,2.4,1.2
		c0,1.8-1.1,3.3-0.1,5.1c0.9-1.7,5.3-2.1,3-6.5c-2.2-4.5,2.4-6.8,4.6-6.6c0-1.4-0.4-2.4-1.3-2.9c0.3-2,1.9-2.6,2.6-4.2
		c-2.2,0.8-4-0.4-6,0.8c-1.2,0.6-1.1,2.7-2.1,3.5c-1.1,0.9-2.2,0.8-3.5,2c-3.1,2.9-5.3-4.2-4.1-8c0.8-2.6,2.2-0.5,3.1,0.6
		c0.5,3.8,1.6,1.1,3.7,3c0.3-6.3-5.7-7.7-2.6-13.3c0.8,1,1.6,2,2.4,3c0.5-2.2,1.7-4.3,0.1-5.6c-2.2-1.9,0.8-4.5,1.4-7.1
		c-2.1,0.8-3.4,5.3-4.4,7.7c-0.2-1-1.3-5.6-2.5-3.7c-0.8,1.3,2.6,4,0.3,4.5c-1.3,0.3-6,0.6-5.4,4.3c4.8,0,2.4,5.8,1.9,9.1
		c-0.6,4.1-2.6,1.4-3-1.2c-0.2-1.4-0.9-2.2-1.9-2.3c-1.6-0.2-0.8-3.2-1-4.7c-1.3,2.2-0.5,5.5-1.9,7.7c-2.2-2.2-2.2-0.4-4.3-1.2
		c-1.8-0.6-2-4.4-3.9-5.4c1.1-1.9,2,0,3.2-0.5c0.4-2.7-4.1-4.6,0.3-5.2c-0.7-1.9,0.3-2.9-0.4-4.5c-1.7-3.5-1.1-3.7,1.4-4.7
		c-1.6-1.8-3.1-0.6-4.8,0c0.1-1.1,0.3-2.1,0.7-3c-0.6-1.3-3.4-0.4-3.9,0.7c-1-1.7-1.4-1.3-2.7-0.4c-2.1-2.6-0.2-3,0.3-6
		c0.4-2-0.4-5.9-1-7.4c-0.7-1.9,1.5-1.9,1.5-3.8c-2.3,1-4.6,2.8-4-2.5c0.3-2.9-0.9-6-1.7-9.4c-0.8,4.2,0.1,10.3-1.4,13.9
		c-0.1-2.7-0.8-3.4-2.5-2.5c-2.2,1.1-2.6-4.3-4-5.4c0,2,0.1,2.8-1.3,3.5c2.7,2.8,2.3,2.8,0.2,5.7c-1.3,1.8,0.2,2.1,1.1,2.2
		c1.4,4.7,0.9,4.1-1.2,6.9c-1.3,1.8-2.1,4.4,0.1,5.9c0.9-2.4,3.7-2.2,2.6,0C3.8,33.3,2,32.7,0,32.6v5.1c1,0,1.6,0.4,1,3
		c1.3,0.6,2.5,0.6,3.8,0c0.7,2.6-1.4,2.7-2,4.5c0.7-0.4,3.8-1.8,3.3,0.9C5.7,48,3.5,46.3,2.7,47.3z M0.4,60.1
		c0.7,0.4,0.8,0.9,0.3,1.5C-0.1,61.2-0.2,60.7,0.4,60.1z M0.6,283.2c-0.2-0.8,0-1.2,0.6-1.2C1,282.4,0.8,282.7,0.6,283.2z
		 M514.5,393.3c0.8-0.5,1.6-1.1,2.4-1.6C519,395.1,516.8,394.4,514.5,393.3z M524.8,376c-2.2,1.3-2.6,2.2-4.4,0.2
		C522.7,374.6,523,373.5,524.8,376z M525.3,386.1c-1.9,1.4-2.5-0.4-3.9-2.1c0.4-0.4,0.8-0.8,1.1-1.2v0
		C523.5,383.9,524.4,385,525.3,386.1z M519.6,393.3c0.6-4.5,5.2-4.1,7.9-3C526.4,391.3,519.1,397,519.6,393.3z M514.7,377.2
		c1-0.9,3.3-2.7,4.4-1.6c-0.2,0.1-0.3,0.2-0.5,0.3c0.1-0.1,0.2,0.6,0,0.1c2.8,7.7-6.4,5.8-9.8,3.9
		C510.8,378.6,512.7,379,514.7,377.2z M508.2,378L508.2,378c-0.6,1-1.3,2.1-1.9,3.1c-1.3-2.2-3.9-3-6-2
		C502,373.7,504.6,376.2,508.2,378z M504.8,382.8c1.4-0.3,1.5,2,3.1,1.8c2.3-0.3,3.5-2.1,5.9-1c1.5,0.7,2.8,1.8,4.4,2.4
		c-0.6,0.4-1.1,0.8-1.7,1.1c-0.1-0.3-0.2-0.7-0.4-1v0c0,0,0,0,0,0c0.1,0.3-1.3,0.6-0.6,0.2c-2.7,1.1-5.1,2.5-7.8,0.7
		c-2.4-1.6-3,0.7-4.2,3c-1.4-1.4-1.7-1.9-3.5-2.3C501.2,386.6,503.3,383.1,504.8,382.8z M500.3,391.7c-2.8,1.9-2.8,1-5-1.9
		C497.3,388.5,498.5,390.4,500.3,391.7z M499.4,393.6c0.8-0.3,3.7,0.3,3.3,1.8c-0.5,2.2-6.7,1.3-8.1,0.5
		C496.3,395.2,497.8,394.2,499.4,393.6z M492.9,349.6L492.9,349.6c-1.7,1.8-4,2.3-6.1,2.9c-1.8,0.5-1.2-2.5-0.5-3.3
		C487.8,347.5,492.2,346.5,492.9,349.6z M487.2,338.4c-0.3,0.2-2.9,1.8-3,0.9c0,0-0.4,0,0,0c-1.3,0.1-1.3,0-2.3-0.8
		C483.6,337.4,485.3,338,487.2,338.4z M496.2,297.2c-0.7,0.4-1.4,0.7-2.1,1c-1.6-0.4-3.1-0.7-4.7-1.1
		C492,296.5,493.6,296.2,496.2,297.2z M486.8,292.4c0.4,0.8,0.8,1.6,1.2,2.5c0,0,0,0-0.1,0.1c-1,1-1.9,2.8-3,1.4
		C484.4,295.7,486.4,293.1,486.8,292.4z M456.4,275.6c-0.5-1-1-2.1-1.5-3.1c0.6-0.4,1.3-0.9,2-1.3c0,0,0,0,0,0h0c0,0,0,0,0,0
		c0.6,0.3,1.1,0.6,1.7,0.9C457.9,273.2,457.1,274.4,456.4,275.6z M452.7,348.7c-1.8-1.9-2.7-2-1.4-4.6
		C452,345.5,453.6,347.2,452.7,348.7z M451.3,340c1.7-1,4.7-1.6,5.1,1.5C456.6,343.6,451.8,340.7,451.3,340z M461,372.2L461,372.2
		c-2.6,0.2-5.4,1-7.8-0.5c1.6-2.2,4.1-1.8,6.4-2C461.2,369.6,462.9,370.9,461,372.2z M460.5,326.2c0.6-2.2,2.2-2.6,3.9-3.6
		c0.6,0.7,3.1,3.1,0.7,2.5C463.6,324.6,461.9,325.7,460.5,326.2z M471.7,359.8c-0.2,0.5-0.6,0.9-1,0.2c-1.1-2-2.4-0.9-3.8-0.2
		c-1.1,0.6-3.1,0.2-1.3-1.2c1.3-1,3.2-1.2,4.7-1.6h0C470.8,357.6,472,358.9,471.7,359.8z M477.6,342.8c-1.9,1.9-2.4,0.3-1.3-1.9
		C476.8,341.6,477.2,342.2,477.6,342.8z M469.8,295.8c2.3-1.6,4.1-3.6,5.9-0.4c-1.7,0.6-3.4,1-5.1,1.4
		C470.2,296.9,469.1,296.2,469.8,295.8z M468.3,302.4c1.1-2.1,2.3-3.6,3.9-5.1c-0.3,4.4,0.3,6.3,3.9,7.6c-0.8,0.3-2.9,0.7-3.2,1.5
		c0,0,0,0,0,0h0c0,0-0.1,0-0.1-0.1C471.6,305.7,467.4,304.2,468.3,302.4z M462.1,312.6c1.9-1.3,2.9-2.7,5-1.6
		C465.1,312.6,464.1,314.5,462.1,312.6z M466,304.8c-1.4,1.3-2.8,1.6-4.5,2.1C461.4,305.3,464.9,304,466,304.8z M459.2,280.1
		c1.4,1.9,0.8,2-0.5,3.8C458.2,282,458.1,281.8,459.2,280.1z M459,284c1.4,2.1,1,3.7-1,1.9C458.3,285.2,458.6,284.6,459,284z
		 M465.6,299.2c-1.4,2.5-2.7,3.6-5.2,4.8c-0.3,0.1-3.4-1.7-3.8-1.8c0.7-0.6,1.4-1.1,2.1-1.7v0c1,0.3,2,0.4,3,0.5
		c-0.2-2.4-4-1.5-5.4-1.3C459.4,297.6,462.1,298.6,465.6,299.2z M457.4,328.9c-1.5,2.7-3.6,4.9-5.8,1.9c0.4-2.3,1.1-3.5,2.3-5.3
		C454.8,327.6,455.1,329.5,457.4,328.9z M452.7,310.6c1.1,2.1,2,2.6,0.4,4.5C451.4,312.8,451.4,313,452.7,310.6z M453.8,289.4
		C453.8,289.4,453.8,289.4,453.8,289.4c0.4,0.4,0.7,0.7,1.1,1.1c-1.4,1-2.5,2.5-3.8,1.2C452,290.9,452.9,290.1,453.8,289.4z
		 M450.3,321.2L450.3,321.2c0.5,0.6,1,1.2,1.5,1.9c-1.5,1.4-1.6,1-3.2-0.3C449.1,322.3,449.7,321.8,450.3,321.2z M439.9,289.1
		c-1.5-1.4-0.7-1.6,0.2-3.5C441.3,287.6,441.4,287.5,439.9,289.1z M415.8,390.6c0.2,0.6,0.4,1.3,0.6,2
		C414,395.5,414.6,393,415.8,390.6z M414,386c1.2-1.9,1.6-1.1,2.9,0.1C417,386.1,413,387.6,414,386z M417.3,378.2
		c-0.4-0.6,0.7-1.8,1-2.1c0.5,0.3,1,0.6,1.4,1.1C419,377.9,418.1,379.4,417.3,378.2z M419.3,349.4c2.2-2.2,2.2-2.3,4.8-0.8
		C422.3,349.5,421,351,419.3,349.4z M422.9,353.1c0.9-1.3,3.7-1.8,5.1-1.9C426.3,354.7,426,354.9,422.9,353.1z M426.5,365L426.5,365
		c-0.7-0.7-1.3-1.3-1.9-2c2-1.9,2.3-1.8,4.7-0.7C428.4,363.3,427.4,364.1,426.5,365z M442.3,313.1c0.2-0.7,0.5-2.5,1.3-2.2
		c1.5,0.7,3,1.3,4.6,1.9c-1.5,0.9-2.2,1.5-3.3,3c-0.9-0.9-1.8-1.8-2.6-2.7C442.3,313.2,442.3,313.2,442.3,313.1z M448.2,381.9
		c-1.2,1.6-1.9,1.6-1.7,3.9c0.1,1.4-0.5,1.8-1.6,1.6c-2.7-0.6-7.2-0.3-9.4,1.8c2.3,0.4,4.5-1.3,6.6-0.1c-1.6,2.2-5,1.8-7.3,2.2v0
		c-0.7-0.3-1.4-0.6-2.1-1C436.4,384.5,442.5,382.5,448.2,381.9z M430.6,358.9c1.9-0.9,3.4-2.5,5-0.6
		C433.6,360.6,433.3,360.1,430.6,358.9z M440.2,347.8c-0.5-0.4-1.3,1.1,0.1,0.1c-1.6,1.1-6.5,5.6-7.8,2.2
		C434.5,349.2,438.6,346,440.2,347.8z M425.3,325.4c2.7-2,6.3-0.4,8.8,1.5c-1.2,0.8-2.2,1.3-3.5,1.7c4.2,0.6,3.7,4.4,0.5,6.6
		c-0.3,0.2-4.5,3.2-4.6,1.8c-0.2-2.2-0.2-4.4-0.3-6.5l0,0c0-0.3-0.1-0.6-0.2-0.9c-2.6,1.4-5.7,3.8-8.6,3.8
		C418.4,330,422.8,327.2,425.3,325.4z M414.8,323.2c0.4,1,0.9,2,1.3,3c0,0,0,0,0,0v0c0,0,0,0,0,0c-0.2,0.4-0.4,0.7-0.7,1.1
		C414.5,325.5,414,325.1,414.8,323.2z M413.7,334C413.7,334,413.7,334,413.7,334L413.7,334c0.1,0,0.1,0.1,0.1,0.1
		c1.3,1.2,2.6,2.4,4,3.4c0.8,0.6,3.1-1.6,3.7-2c0.8,2.9-0.3,3.4-2.5,4.2c-1.4,0.5-2.7,0.4-3.1-1.6c-0.5-2.2-1.7-1.4-3.5-1.6
		C409.9,336.2,413,334.5,413.7,334z M410.5,342.9c1.2-2,4.8-0.9,6.4-0.6c-0.5,1-0.9,2-1.4,3c0,0,0,0,0,0c0,0,0,0,0,0
		c2-1.1,3.4-1.8,5.6-1.7c-1.4,2.2-3.3,2.5-5.4,3.3c-0.1-0.5-0.2-1.1-0.2-1.6c0,0,0,0,0,0c0,0.4-1.2-0.2-0.4-0.1
		C413.7,345.1,409.5,344.7,410.5,342.9z M408.9,310.6c0.7,0.7,1.5,1.5,2.2,2.2C409.4,314.3,407.7,312.9,408.9,310.6z M399.4,318.7
		c1,1.4,1.5,4.6-0.5,4.9c0.3,0-0.1-0.3-0.1-0.1C397.7,321.7,398.7,320.6,399.4,318.7z M397,307c0.8,1.7,1.8,2.7,0.2,4.1
		c-1.1,1-1.4-0.4-2.1-1.6l0,0C395.7,308.6,396.4,307.8,397,307z M396.6,314.9c-1.3,0.6-2.5,1.8-3.6,0.6
		C394.7,314.2,395.4,312.7,396.6,314.9z M380.8,308.9C380.8,308.9,380.8,308.9,380.8,308.9L380.8,308.9
		C380.8,308.9,380.8,308.9,380.8,308.9c-0.7-1.9-0.7-2.2,0-4.1c1.2,0.9,2.5,1.7,3.7,2.7c0.1,0.1-0.5,1.7-0.8,1.7
		C382.7,309.3,381.8,309,380.8,308.9C380.8,308.9,380.8,308.9,380.8,308.9C381.7,309,380.7,309.5,380.8,308.9
		C380.8,308.9,380.8,308.9,380.8,308.9c-0.7,2.2-1.6,4.8-3.5,3C378.5,310.3,379,309.3,380.8,308.9z M347.1,315.6
		c-0.4-0.7-0.7-1.4-1.1-2.1c0.7-2.2,1.1-3.4,2.6-5.1C349,311.9,348.7,312.8,347.1,315.6z M344.7,299.4c0.4-1.7,1.6-4.3,3.1-4.5
		c-0.2,1.9-0.9,7.2,2.1,6c1-0.4,2.2,0,1.3,1.7c-0.8,1.5-2,0.2-2.8,1.3C347.1,302.8,344.1,301.9,344.7,299.4z M340.6,308.3
		c0.3-1.5,2.9-1.4,3.4-0.2C342.7,309,339.8,312.1,340.6,308.3z M324.9,377.8c-0.9-3.4,0.5-4.8,2.9-3
		C326.8,376.1,326.2,377,324.9,377.8z M328.3,342.2c-0.7,1.4-3,1.8-4.2,2.3c0-0.1-0.1-0.1-0.1-0.1c-1.9-2.9-1.1-3.6,0.4-6.9
		C325.6,338.5,329.4,340.1,328.3,342.2z M327.8,339.1c-1-2.2,0.2-4,1.9-2.1C329.1,337.7,328.5,338.4,327.8,339.1z M334.8,327.3
		c-1.6,0.9-1.8,1.3-3.4,0.3C333.3,325.8,333.2,325.6,334.8,327.3z M331.8,325.3c0.1,1.7-3.5,2.1-4.4,3.2c-0.3-0.8-0.5-1.6-0.8-2.4v0
		c1-1.2,1.2-2.3,2.8-2.1C330.1,324.2,331.7,324.2,331.8,325.3z M331,322c-1.9,0.3-6.1,2.7-7.5,1.1C324.9,321.8,331.6,316,331,322z
		 M323,336.2c-1.7,1.4-1.8,1.5-3.7,0.5C320.9,335.7,321.5,334.7,323,336.2z M305.3,361.3c0.8-0.8,1.6-1.5,2.5-2.3
		C308.4,360.9,306.6,362.3,305.3,361.3z M313.3,352c0.5,1,1,2.2,1.7,3.1c-3.2,1.2-2.9-0.7-3.3-4c1.3-2.9,2.1-2.6,4.8-2.4
		C317.9,348.8,313.4,351.9,313.3,352z M314.1,336.2C313.2,336.7,314.4,336.6,314.1,336.2c0.6,0.7,1.3,2.7,1.7,2.5
		c0.3-0.1,1.3-1,1.6-0.2c0.2,0.4,0.2,0.9,0.1,1.3c-1.4,0.8-3.3,2.5-4.3,0.4c-0.6-1.3-0.9-1.5-2-2.3
		C312.2,337.3,313.2,336.7,314.1,336.2z M310.3,345.5c0.2,1.9-3.9,4.2-5.1,4.6c-2.1,0.6-3,1.1-3.7-2c-0.3-1.6,1.4-3.3,2.2-4.2
		C304.8,344.1,310.2,344.4,310.3,345.5z M307.9,339.4C307.8,339.3,307.8,339.6,307.9,339.4c-1.3,1.2-2.7,2.7-4.3,3.4
		c-1.3,0.6-1.8-1.2-2.4-2.2C301.4,340.9,307,337.9,307.9,339.4z M304,353.1c-0.6,0.5-1.2,1.1-1.7,1.6c0,0,0,0-0.1,0
		c-0.5-0.4-1.1-0.8-1.6-1.1C302,352.9,302.8,352,304,353.1z M286.1,354.6c-0.2,2.2-1.6,3.9-3.6,3c-1.8-0.8-4.8,1.1-3.8-2.9
		c0.4-1.5,2.8-1.8,4.1-2.4c2.3-1.1,2.4-0.9,3.3,1.4C286.2,355.6,286.2,355.2,286.1,354.6z M287.7,351.6
		C287.7,351.6,287.6,351.6,287.7,351.6c-0.6-0.7-1.2-1.2-1.7-1.8c2.2-1.5,2.4-1.3,4.6,0.1C289.6,350.5,288.6,351,287.7,351.6z
		 M289.7,302.8c0.6,0.9,1.2,1.8,1.9,2.7h0c-1.2,1.2-2.7,3.8-4.1,2.2C286.9,307,289.2,303.6,289.7,302.8z M282.4,296
		c1.5-2.1,2.8,0.4,4.1,1.7c0,0-0.1,0.1-0.1,0.1c-1,1-2.1,2-3.1,3C283,299.2,281.5,297.4,282.4,296z M284.2,321.4
		c-1.4,1.4-2.9,2.8-4.3,4.3h0c-0.5-2.6-0.6-2.5,1.6-3.7C282.6,321.3,283.2,320.5,284.2,321.4z M281.2,297.2
		c-2.1,2.2-2.5,3.3-5.2,2.4C277,298.6,280.5,295.2,281.2,297.2z M277.1,304.4c0.6,0.8,1.2,1.7,1.8,2.5c-2,1.8-2.1,2.5-3.8,0.2
		C275.8,306.3,276.4,305.3,277.1,304.4z M237.9,394.8c-1-2-0.6-2,0.5-3.9C239.9,392.5,239,393,237.9,394.8z M236.4,387.1
		c1.9-1.6,2.2-2,4.3-1.4C238.8,387.6,238.4,389,236.4,387.1z M240.9,392.3c-1.2-2,0.8-3.5,2.3-2.3
		C242.5,390.8,241.7,391.6,240.9,392.3z M244.8,376.9c-0.4-0.4-0.8-0.5-1.3-0.5c-1-0.1-2.1,0.1-2.9-0.7c-1.2-1.2-2-3.8-1.1-5.5
		c0.9-1.6,1.9-1.3,3.3-1.7c-0.4,1.4-0.7,2.6-1.2,3.9c1.5-0.6,2.2-1.4,3.3-2.9c0.6,1.2,1.3,2.5,1.9,3.7
		C246.2,374.5,245.5,375.7,244.8,376.9z M245.8,327.3c3.8-0.4,2.8,8.3,0.2,9C244.1,336.8,241.4,326.1,245.8,327.3
		C243.7,326.7,247.6,327.1,245.8,327.3z M245,337.6L245,337.6C245,337.6,245,337.6,245,337.6c0.5,1.2,1.8,3,1,4.2
		c-1.1,1.5-2.4-0.9-3.5-2C243.3,339.1,244.1,338.3,245,337.6C245,337.6,245,337.6,245,337.6z M242.4,331.8c0.2-0.1,0.2,0.8,0.1,0.3
		c0.3,1.3,1,2.9,0.2,4c-0.2,0.4-2.1,1.6-2.4,0.6c-0.8-2.8-0.6-7.6,2.8-5.4C242.8,331.4,242.6,331.6,242.4,331.8
		C242.4,331.8,242.4,331.8,242.4,331.8z M241.9,353.3c0.9-0.6,1.5-0.3,2.3,0.3c1.2,0.8,0.7,0.9,0.2,2.3v0c-1.6,1.4-3.2,2.7-4.8,4.1
		C239.2,357.6,240.1,354.7,241.9,353.3z M246.9,349.8c-0.9-0.8-1.7-1.6-2.6-2.5C247.2,345.7,247.8,345.9,246.9,349.8z M249.5,377.6
		c-0.1,0.5-1.8,2.6-1.6,1.2c0.2-1.2,0-5,1.4-5.4c1.5-0.4,2.8,0,4,1C251.7,375,250,375.3,249.5,377.6z M253.6,334.1
		c1.9,2,2.6,2.1,1.7,4.9c-1.9-1-3.3-1.8-5.4-1.9C251.2,335.6,251.9,334.8,253.6,334.1z M250.5,332.4c1.5-1.3,1.5-1.5,3-0.3
		C252.1,333.3,251.9,333.9,250.5,332.4z M250.5,366.3c0.8-1.1,3.2-3.3,3.8-0.7C252.7,366.6,252,367.7,250.5,366.3z M250.4,362.3
		c1.5-0.8,3.6-2.8,5.1-2c-1,1.3-1.9,2.5-2.9,3.8C251.9,363.4,251.2,362.8,250.4,362.3z M255.3,374.7c-0.3-1-0.1-3.9-0.6-4.2
		c0.8-1.7,0.9-1.7,2.4-1.8C256.6,371,256.6,372.9,255.3,374.7z M269.3,295.4c-1.5,1.5-1.4,1.8-3.1,0.3
		C267.7,294.4,267.6,294.3,269.3,295.4z M263.8,320.7c0.7-0.8,2,1.2,2.6,1.7c-1.2,0.7-1.2,1.3-2.3,0
		C263.1,321.9,263,321.3,263.8,320.7z M265.9,336.7c1.8,0.1-2.6,6.9-2.9,7.3c-0.6-2.5-1.3-1.8-3.4-1.5c-2.2,0.3-4.4,0.7-6.6,0.8
		c-5.6,0.3,1.4-5.8,2.5-2.6v0c0,0,0,0,0,0c0-0.2,1.5-0.9,0.7-0.4C259.4,338.4,262.2,336.5,265.9,336.7z M260.2,279.5
		c-1.3,0.9-2.2,2.2-3.6,1.1C258.2,279,258.6,277.8,260.2,279.5z M255.4,271c1.2-0.7,4.4-2.6,5.4-1.2h0c-1.9,1.7-3.7,3.7-4.9,6.2
		C255.6,275.2,254.5,271.5,255.4,271z M254.6,315.3c1.2,1.2,1.4,3,1.9,4.7c-2.4-0.4-3.3,0.9-5.4,1.5c-0.2-2.9,0.5-5.8,3-6.1
		C253.4,315.3,252.6,315.3,254.6,315.3z M249.4,268.6L249.4,268.6c1,0.6,1.9,1.2,2.9,1.9c-2.1,1.2-3.8,2.9-6.1,3.3
		C247,271.8,248.1,270.3,249.4,268.6z M246,285.1c1.3,1.2,2.5,2.4,3.8,3.6c-1.9,1.1-2.5,1.8-4.4,0C244,287.4,245.1,286.8,246,285.1z
		 M246.6,312.4c0.7,0.7-1.7,3.7-2.1,4.5v0c-1.2-0.8-2.4-1.7-3.6-2.6C241.9,313.9,245.7,311.5,246.6,312.4z M241.9,321
		c-0.6,0.6-1.1,1.3-1.7,1.9v0c-0.3-0.5-0.7-0.9-1-1.4C240.4,320.5,240.6,320,241.9,321z M235.4,270.4c1.4,1,2.6,2.5,3.8,3.8
		c-0.6,0.5-3.5,3.7-4.2,2.9c-0.9-1-1.4-2.5-2.2-3.6C233,273.2,235,270.2,235.4,270.4z M237,288.3c1.2,1.2,0,2.7-0.6,4.1
		c-1.3-0.2-2.6-0.4-3.9-0.6C233.2,291.2,236.4,287.7,237,288.3z M211.1,386.3c-0.3-0.3-0.6-0.7-0.9-1c0.3,0.3-0.4-0.2-0.2-0.1
		c-0.6-0.4-1.2-0.8-1.8-1.2C210.9,382.3,212.6,381.9,211.1,386.3z M212,364.7c0,0-0.1,0-0.2,0.1c-1.1-0.7-1.2-2.7,0.3-2.9
		c1-0.2,2.6,1.4,3.7,1.8C214.5,364.1,213.3,364.5,212,364.7z M211.9,346.7c0.3-0.4,1.7-2.7,2.3-2.4c1.3,0.7,2.3,2.2,3.4,3.3
		C215.7,349.3,213.9,347.6,211.9,346.7z M222.9,352.6c1.5-1.4,1.5-1.7,3-0.3C224.4,353.5,224,354.4,222.9,352.6z M226.1,338.7
		c-2.6,2.8-4.1,4.1-7.6,4.9C220.3,340,222.7,338,226.1,338.7z M218.9,339.8L218.9,339.8c-2.2,2.4-2,1.6-4.4,0.3
		c-2-1-4.2-0.2-6.3-0.4C210.7,334.1,215.4,337.2,218.9,339.8z M207.7,352.8c0.6,0.7,1.2,1.4,1.9,2.1
		C207.1,356.7,206.4,356.3,207.7,352.8z M208.1,387.5c-0.2,0.6-0.4,1.2-0.5,1.7c1.1-0.7,1.3-0.8,2.4-0.3c-1.8,2.4-2.3,2.6-4.9,2.7
		C205.6,390.7,207.2,387,208.1,387.5z M205.6,314.5c1.1,2.2,0.1,3.6-0.7,5.9c-0.4-1-0.8-2-1.2-3h0
		C204.3,316.5,205,315.5,205.6,314.5z M172.1,392.8c0.2-0.5,0.4-0.5,0.6,0C172.6,393.3,172.4,393.3,172.1,392.8z M173.8,383.4
		c0.1-0.9-1.1-0.9-0.7-2.8c0.5,0.2,0.8,0.8,0.7,1.7c0.1-0.1,0.2,0.1,0,0.3C174.2,382.2,175.3,382.5,173.8,383.4z M176.4,375.7
		C178,379,175,378.5,176.4,375.7L176.4,375.7z M177.1,378.5c0.3-0.4,0.6-0.7,0.9-1.1C178.8,378.9,177.7,378.7,177.1,378.5z
		 M197.9,319.5c-0.8,0.8-1.5,2-2.3,2c-0.3-0.2-0.6-0.3-0.8-0.5C196.1,319.2,196.3,318,197.9,319.5z M190.7,317c1.2-1,1.1,2.3,0.9,3
		C191,319.1,189.4,318,190.7,317z M187.7,324.6c-0.1,0.2-0.3,0.3-0.4,0.5c-0.1-0.1-0.2-0.3-0.3-0.5
		C187.3,324.4,187.5,324.5,187.7,324.6z M186.8,319c-0.1,0.3-0.3,0.3-0.4,0C186.5,318.6,186.7,318.6,186.8,319z M182.8,338.5
		c0.7-2,1,2,1.3,2.2C183.3,343.3,182.3,339.8,182.8,338.5z M181.2,347.1c-0.2,0.1,0.1,0.7,0,0.3c0.1,0.7,0,1.5-0.3,2.1
		C180.5,348.1,180,347.7,181.2,347.1z M178.3,317.2C178.4,316.8,178.6,317.4,178.3,317.2L178.3,317.2z M178.3,311.5
		c-0.4-1-0.6-2-0.6-3.1C178.6,307.3,178.6,310.8,178.3,311.5z M177.1,311.8c0.3,0.7,0.3,1.4,0.1,1.9
		C176.8,312.6,176.8,312,177.1,311.8z M174.8,360.2c0.6,0.8,0.6,1.1,0.2,2C174.9,361.4,174.5,360.9,174.8,360.2z M170.8,363.8
		c0.6-0.9,1.9,4.5,2.4-0.2c1.2,0.1,0.7,2.9,2.1,0.7c0.4-0.7,0.6-1.7,0.9-2.5c0.2,1.1,0.3,2.9,0.6,3.9c1.4-3.5,0.5,4.8,2.2,0.3
		c1,0,0.1,1.2,1.5,1.2c0.3-0.2,0.6-2.1,1-0.6c0.4,1.6,0.9-0.3,1.1-0.8c0.9-2.3,1.7-0.3,1.4,1.4c1.1-0.4,0.9,0.3,2.1-0.5
		c-0.8-1.7-1.6-3.3-2.4-5c0.4-0.9,1.3-2.1,0-2.7c-1.5-0.7-4.3-5.5-4.1-7.8c1.6,0.3,1.4-0.9,2.8-1.2c-0.2,0.5-0.2,1.1-0.2,1.6
		c1.1-2.5,1.8,1.9,3,2.8c0.4-1.7-0.3-5.4-1.4-6.5c-1.1-1.1-1-1.9,0-2.8c0.9,0.7,1,1.5,2,2.3c0.3-1.6-0.9-4.2,1-3.8
		c0.9,0.1,1.4,1.4,2.5,0.1c-0.1-0.2-2.3-1.6-2.3-1.6c-1-0.2-2-0.1-2.9-0.8c1-1,1.2-0.4,2.3-0.7c-0.7-1.6-0.9-3.3-1.1-5
		c0.3,0.1,0.6,0.1,0.9,0.2c-0.1,0.3-0.1,0.5-0.2,0.7c-0.2,1.1,1.1,3.6,2.1,2.5c0.8-0.9,2.4,0.3,3.4,0.8c-0.1-0.4-0.2-0.7-0.2-1
		c0.6,1.1,1.1,2.6,1.8,3c1.6,0.8,2.7-0.1,4.2,1.3c1.1,1,3.7,0.4,4,0.8c1.3,1.8-2.7,2.6-3.3,2.8c-3.5,1.2-7.6,1.5-10.3,4.4
		c2.9,0.2,4.9,0.7,7.7-0.6c-0.2,2.3-2.8,4.5-4,6.5c-1.7,2.9-4,3.1-6.1,5.2c1.8,0.4,2.5,0.4,4.1-0.1c1.7-0.5,0.2,2.2,0.9,2.7
		c1.6,1.2,4-0.5,5.3-1.7c0.6-0.5,3.9-1.7,3.1,0.7c-0.7,2.1-3.1,3.7-4.6,4.9c-1.8,1.6-3-0.3-4.8,0.6c-0.6,0.4-2.2,3.5-2.4,4.3
		c0,0.2-0.1,0.3-0.2,0.4c0-0.5,0-0.9,0.1-1.1c-1.1-0.5-1.2-0.4-2.2,0.4c-0.2-4.1-10.1,0.7-12.2-2c-0.7-0.9-1.4-1.8-1.7-3.1
		C170.9,367.7,170.7,364,170.8,363.8z M171.5,390.6c-0.2,0.6-0.5,0.9-0.9,1.1c0,0-0.1,0.1-0.2,0.1
		C170.2,390.7,170.9,389.5,171.5,390.6z M169.2,374.9c0-0.4,0.1-0.8,0.4-1.1C169.7,374.4,169.6,374.8,169.2,374.9z M169.7,366.9
		c-0.3-0.2-0.3-0.6-0.2-1c-0.1,0.4,0.2,0.3,0.1,0.1C169.9,366.4,170.3,367.2,169.7,366.9z M169.6,311.2c-1,0.3-1.7,0.2-2.5,0
		C167.9,310.6,168.6,310.3,169.6,311.2z M175.1,260.7c0.4,0.6,0.4,1.2,0.1,1.6C174.8,261.9,175,261.4,175.1,260.7z M170.3,279.6
		c0.2,0,0.2,0.2,0,0.5C170.1,280.1,170.1,279.9,170.3,279.6z M168.8,276.1c0.4,0.6,1.6,2.3,1,3.3C169,278.6,167.6,277.7,168.8,276.1
		z M165,283.1c0.4,0.5,0.5,0.9,0.4,1.6C164.8,284.3,164.8,284.2,165,283.1z M163.5,291.8c-0.1,0.5-0.2,0.5-0.4,0.1
		C163.3,291.5,163.4,291.4,163.5,291.8z M156.2,382.9c0,0,0-0.1-0.1-0.2c0.3-0.2,0.6-0.1,0.8,0.3C157,383.6,156.4,383.4,156.2,382.9
		z M157.1,365.6c-0.8-0.9,0.1-3.1,1.2-2.4c-0.3,0.9-0.6,1.7-0.9,2.6C157.6,365.1,156.8,365.2,157.1,365.6z M157.4,359.4
		c0.2-0.1,0.3-0.2,0.5-0.3C158.2,359.8,157.6,360.1,157.4,359.4z M157.6,366c0.1-0.4,0.4-2.4,1-2.2c0.1,0.3,0.1,0.6,0.2,0.8
		c-0.1-0.3,0.5,0,0,0C160.8,364.5,159,367.8,157.6,366z M158.1,361.8c-1.3-1.7,0.4-1.5,0.8-3.9c0.1,0.1,0.2,0.2,0.2,0.3
		c0.6,1.3,0,4.9,1.1,1.5c0.3-1,1,0.5,0.9,1c-0.2,1.3-0.8,2.6,0.3,3.6C160.1,365,159,363,158.1,361.8z M162,367.1
		c-0.2-0.5-0.1-0.9,0.4-1.3c-0.2,0.3,0.1,0.3,0,0.1C162.6,366.6,162.4,367.9,162,367.1z M161.6,361.1
		C162.8,360.3,163,362.4,161.6,361.1L161.6,361.1z M162.6,295.1c0.5,1.7,0.4,2.1-0.6,2.1C162,296.4,162.3,295.8,162.6,295.1z
		 M162.6,318.9c-0.3,0.3-0.5,0.3-0.8,0.1c0,0.1-0.4,0.3,0,0c-0.9,0.9-1.1,1.1-1.5-0.6C161.1,318.9,161.7,317.4,162.6,318.9z
		 M160.4,292.3c1.8-1.8,0.6,3.7,0.5,4.3C160.2,295.8,159.4,293.4,160.4,292.3z M160.4,316.2c-0.5-0.1-0.8-0.5-0.7-1.2
		C160.5,314.8,160.6,315,160.4,316.2z M157.7,266.5c0.3,0.2,0.4,0.3,0.3,0.8C157.8,267.2,157.6,267,157.7,266.5z M156.6,298.4
		C156.7,298,157,298.7,156.6,298.4L156.6,298.4z M155.8,267.3c0.3-0.1,0.9,0,0.6,0.7c-0.4,0.5-0.6,0.3-0.8-0.6
		C155.7,267.4,155.8,267.3,155.8,267.3z M159.4,319.8c0,0,0.1,0,0.3,0c0.3,1.4-3.6,1-4.1,0.7C157,319.7,158,319.7,159.4,319.8z
		 M154.1,315.5C153.8,315.3,154.3,314.8,154.1,315.5L154.1,315.5z M145.9,319.6c0.4-1,0.5-1.1,1-1.2
		C146.7,319.9,146.7,320,145.9,319.6z M146.2,316.8L146.2,316.8c0.1,0.3,0.2,0.5,0.3,0.8c-0.1,0.1-0.2,0.2-0.3,0.3
		C145.7,317.5,145.7,317.2,146.2,316.8z M147.1,309.9c-0.1-0.3,0-0.4,0.3-0.4C147.4,309.9,147.3,310,147.1,309.9z M148,320.5
		c0.4-0.4,0.6-0.3,0.8,0.2C148.4,321.3,148.2,321.2,148,320.5z M149.1,321c0.4,0.3,0.3,0.7,0,1.1C148.7,321.7,148.7,321.3,149.1,321
		z M150.4,376.5c0.2-0.2,0.3-0.2,0.4,0C150.7,376.9,150.5,376.9,150.4,376.5z M153.4,373.4c-0.2,0.6-0.4,1-0.6,1.5
		C152.4,373.7,152.5,373.5,153.4,373.4z M152.8,364.2c-0.2,0.2-0.3,0.1-0.3-0.4C152.6,363.6,152.7,363.7,152.8,364.2z M153,365.5
		c-0.4,0.3-0.7,0.5-1.2,0.9C152,365.2,152.2,365.1,153,365.5z M150.8,375.9c0,0-0.1,0-0.2,0C150.7,375.9,150.7,375.9,150.8,375.9
		c-0.2,0-0.2,0-0.2,0c-0.7-0.3-2.3-1.6-0.5-1.7C150.9,374.1,152,375.6,150.8,375.9z M150,374c-0.2-0.2-0.4-0.5-0.6-0.7
		C150.3,372.7,150.4,372.9,150,374z M149.6,315.6c0.2,0.1,0.2,0.3,0.1,0.6C149.4,316,149.4,315.8,149.6,315.6z M149.4,318.5
		c-0.2,0.4-0.6,0.8-0.7,0.1c0-0.7,0.3-0.8,0.7-0.3C149.4,318.5,149.4,318.5,149.4,318.5z M145,258.6c0.4,0.2,0.6,0.6,0.5,1.2
		c0,0,0,0,0,0c0-0.5,0.2-0.4,0,0c0,0,0,0,0,0c1.4-2.7,2.9,1.4,3.7,2.5c-0.7,2.9-3.4-0.2-3.7-2.5c0,0,0,0,0,0c0,0,0,0,0,0
		C144.9,260.4,144.5,259.3,145,258.6z M144.9,271.7c0.4,0.2,0.4,0.5,0.1,0.9C144.7,272.3,144.7,272,144.9,271.7z M145.4,307.8
		c-0.1,0.3-0.1,0.4-0.2,0.4c-0.2,0.5-0.7,1.1-0.7,0.2C144.5,307.8,144.8,307.6,145.4,307.8z M146.3,311.5c-0.3,1.9-1.5-0.9-1.9-1.3
		C145.3,309.4,146.6,309.1,146.3,311.5z M144.8,321.6c-0.1,0.8,0,2.2-0.5,2.7c0-0.2-0.1-0.3-0.1-0.4c0,0.1,0.1,0.3,0.1,0.4
		c0.1-0.1-0.3-1.1-0.2-0.9c0,0.1,0.1,0.3,0.1,0.4c-0.1-0.2-0.1-0.3-0.1-0.4C143.9,322.5,143.9,321.7,144.8,321.6z M161.3,243.2
		c1-0.1,1.2,1.5,0.5,2.3c-0.3-0.6-0.8-1.1-0.7-1.9C161.1,243.6,161.1,243.5,161.3,243.2z M161.2,250.3c-0.1-0.3-0.3-0.5-0.4-0.9
		C161.5,249.4,161.5,249.4,161.2,250.3z M165.4,231.6c0.2,0,0.2,0.2,0,0.6C165.3,232.2,165.2,232,165.4,231.6z M163.4,236.1
		c-0.1,0.2-0.3,0.5-0.4,0.7C162.6,236.3,163,235.9,163.4,236.1z M162.1,235.4c0.1,0.5,0.1,0.8-0.3,0.9
		C161.6,235.9,161.7,235.6,162.1,235.4z M156,219.9c0.4,0.5,0.5,1.2,0.6,2.2C155.9,221.5,156,220.7,156,219.9z M155.6,209.1
		c-0.1,0.3-0.1,0.5-0.2,1C155.1,209.5,155.2,209.3,155.6,209.1z M158,250.1c-0.2-0.1-0.3-0.3-0.5-0.4c0.2-0.4,0.5-0.4,0.6,0
		C158.2,249.8,158.1,250,158,250.1z M158.1,248.2c-0.1-0.6-0.1-1.1-0.2-1.7C158.6,247,158.6,247.3,158.1,248.2z M158.5,239.7
		c1.2-0.7,0.9,1.6,0.4,3c0.1,0,0.1,0.3-0.5,0.8C158.4,242.9,158,240,158.5,239.7z M155.9,239.3c0.3-0.1,0.4,0.2,0.4,0.9
		C155.9,240,155.8,239.7,155.9,239.3z M155,243.9c0.8-1,1.2-3.9,2.7-3.6c0,0.7,0.6,3.8-0.2,4.1c-0.5,0.2-1,1.9-1.5,1
		c0.2-0.4,0.3-0.8,0.3-1.2c-1.5,0.2-0.6,5.5-2.7,3.8h0c0.5-1.5,0.7-2.1-0.2-3.3C152.7,243.7,154.2,242.5,155,243.9z M154.2,241.1
		c0,0.4-0.1,0.7-0.1,1.1C153.8,241.7,153.8,241.4,154.2,241.1z M153.2,235.5C154.7,234.1,154.6,237,153.2,235.5L153.2,235.5z
		 M151.9,248.2c-0.3-0.3-0.3-0.6-0.1-1.1C152.1,247.2,152.1,247.6,151.9,248.2z M152.6,217.6c0,0-0.1,0.1-0.2,0.2
		C149.4,214.4,154.1,215.9,152.6,217.6z M143.5,228.9C142.4,227.3,144.6,227.5,143.5,228.9L143.5,228.9z M148.3,249
		c0.2-0.5-0.3-0.7-0.1-0.3C147.4,247.1,149.3,246.3,148.3,249z M148.1,214.5c0.7,0.5,2.3,0.9,1.3,2.4
		C149.3,216.3,146.2,215.9,148.1,214.5z M145,219.7c0.9,2,1.3-0.5,2.3-0.6c0.8-0.1,0.8,5.4-0.1,4.4c0.1-1.7-1-2-2.1-2
		c-0.4,0-2.5-1.7-1.7-2.3c-0.2,0.1,0.1-0.3,0,0c0-0.4,0.1-0.7,0.3-0.9C143,220.4,144.5,218.8,145,219.7z M143.9,202.9
		c0.1,0.7,0.6,4.7,0.6,4.8c-0.7,0.5-1.1,0.8-1.5-0.1C142,205.6,143.1,204.4,143.9,202.9z M143.5,221.9c0.7-0.1,1.3,2.1,0.3,2.6
		c0.1,0,0.1,0-0.3,0.1C142.1,223.9,141.6,222.2,143.5,221.9z M141.9,207.3c0,1.1,0,1.1-0.8,1.2C141.4,208,141.6,207.7,141.9,207.3z
		 M140.3,337.5c0.2,0.3,0.1,0.5-0.3,0.5C139.8,337.7,139.9,337.6,140.3,337.5z M138.5,245.8c-0.1,0.6-0.1,1-0.5,1.1
		C137.9,246.3,137.9,245.8,138.5,245.8z M135.5,340.6c0.1-0.4,0.1-0.7,0.2-0.9C136,340.1,135.9,340.4,135.5,340.6z M135.8,347.3
		c0.1,0.1,0.3,0.2,0.4,0.3C136.1,348,135.7,347.7,135.8,347.3z M137.1,194.4c-0.1,0.5-0.2,0.8-0.3,1.2
		C136.6,194.9,136.7,194.7,137.1,194.4z M136.7,326c0.1,0.1,0.3,0.2,0.4,0.3C137,326.9,136.6,326.5,136.7,326z M136.5,337.9
		c-0.2,0.8-0.6,1-1.2,0.8C135.8,338.3,136.1,338.1,136.5,337.9z M135.6,313.3c-0.2-0.2-0.2-0.4,0-0.5
		C135.8,312.9,135.8,313.1,135.6,313.3z M135.4,216.4c0.1,0,0.2,0.1,0.3,0.2c0,0.7-0.1,1.1-0.6,1.2
		C135,217.2,135.1,216.8,135.4,216.4z M133.1,349c-0.2-0.1-0.3-0.2,0-0.5C133.2,348.5,133.3,348.7,133.1,349z M133.5,348.8
		c0,0.4,0.3-0.1,0-0.2C135.3,349.2,133.6,350,133.5,348.8z M134.3,231c-0.1,0.5-0.1,0.9-0.2,1.2C133.7,231.7,133.8,231.3,134.3,231z
		 M134.7,319c-0.1,0.1-0.3,0.1-0.4,0.2C134.1,318.2,134.7,319,134.7,319z M133.7,216.3c0,0,0.1-0.1,0.3-0.1
		C135.3,220.8,131.7,217.1,133.7,216.3z M132.9,223.6c0.3,0.3,0.5,0.6,0.3,1.3C132.8,224.5,132.7,224,132.9,223.6z M133.1,231.5
		c0.2-0.2-0.2-0.3-0.2,0.1C132.3,228.2,133.9,230.6,133.1,231.5z M132.3,347.3c-0.1-0.5,0-0.7,0.3-0.7
		C132.5,346.8,132.4,347,132.3,347.3z M132.2,218.7c0.4,0.3,0.4,0.5,0.2,0.9C131.9,219.3,131.8,219,132.2,218.7z M131.3,342.3
		c-0.2-0.1-0.2-0.3,0-0.7C131.5,341.9,131.5,342.1,131.3,342.3z M131.2,221.4C131.2,221.3,131.3,221.3,131.2,221.4
		c0.3,0.3,0.3,0.6,0,0.8c-0.1,0-0.2,0-0.3-0.1C130.9,221.7,131,221.4,131.2,221.4z M130.9,229.3c0.2,1.1,0.2,1.1-0.7,0.9
		C130.5,229.8,130.7,229.5,130.9,229.3z M118.3,216.8c0.3-0.6,0.6-0.9,1.1-0.8C119.5,217.5,119.1,217.4,118.3,216.8z M120.8,221.2
		C120.3,223.2,119.3,221.3,120.8,221.2L120.8,221.2z M122,217.4C122.6,219,121.3,219.6,122,217.4L122,217.4z M121.6,223.1
		C121.6,223.1,121.6,223.1,121.6,223.1L121.6,223.1C121.6,223.2,121.6,223.2,121.6,223.1c-0.1-0.2-0.2-0.3-0.2-0.4
		c-0.3-0.9,1-1.4-0.3-1.7c0.2-0.9,1.1-0.9,1.3,0C122.5,221.6,121.8,222.7,121.6,223.1z M123.4,227.5c-0.2-0.1-0.5-0.1-0.7-0.2v0
		c0-0.4,0-0.6,0-0.8c0-1,0.2-1.8,1.1-2C123.9,225.1,123.1,226.3,123.4,227.5z M128.6,263.9c0.3,0,0.3,0.2,0.1,0.6
		C128.5,264.4,128.4,264.2,128.6,263.9z M128.4,265.8c0.2,0,0.2,0.2,0.1,0.5C128.3,266.3,128.3,266.2,128.4,265.8z M127.2,225.7
		c0.4,0.6,0.8,1.2,1.1,1.8C127.6,227.8,126.4,227.1,127.2,225.7z M125.8,223.4c0.7,2.2,0.6,3-0.4,3.3
		C124.8,225.1,124.9,224.4,125.8,223.4z M64.7,331.1c-0.1-0.8,0.2-1.4,0.6-1.8C65.5,330.2,65.3,330.8,64.7,331.1z M72.7,359.8
		c0,0-0.1,0.1-0.2,0.2c-0.4-0.5-0.4-1-0.2-1.7C72.7,357.8,73.6,359,72.7,359.8z M72.7,345.7c0.1-1.6-1.8-1.6-1.2-4.9
		c0.9,0.3,1.4,1.4,1.3,3c0.1-0.1,0.3,0.3,0,0.5C73.4,343.8,75.2,344.3,72.7,345.7z M76.4,382.7C76.8,383,76.2,383.3,76.4,382.7
		L76.4,382.7z M76.6,335.8c0.3,0,0.6-0.1,0.9-0.3c-0.1,0.4,0,0.7,0.1,0.9C77.3,336.5,76.8,336.3,76.6,335.8z M76.5,335
		c-0.1-0.7,0.1-1.6,0.6-2.7c0.3,0.5,0.4,1,0.6,1.4C77.3,334.2,76.9,334.6,76.5,335z M78.4,385.2c0,0,0-0.1,0.1-0.1
		c0.1,0.3,0.2,0.5,0.3,0.8C78.6,385.6,78.5,385.4,78.4,385.2z M78.4,337.3c0-0.1,0.1-0.1,0.1-0.2c0.5,0.1,1.2,0,1.8-0.1
		C80.2,337.8,79.1,337.6,78.4,337.3z M103,309.7C101.8,309.1,104.4,307.2,103,309.7L103,309.7z M104.4,312.7c-0.2-0.6-0.1-1,0.3-1.4
		c0.1,0.3,0.3,0.6,0.4,0.9C104.9,312.7,104.7,312.8,104.4,312.7z M108.5,280.4c0,1-0.5,0.8-1.2,1.4c0.7,1.7,0.2,1.7-1.1,1.7
		c-1.2,2.8-1.7,0.6-0.6-1.7c0.4-0.8-1-0.2-0.3-1.8c0.2-0.5,0.7-2.3,1-2.6c1.2-1.3,1,1.9,2.1,2.4v0
		C108.5,280.3,108.5,280.4,108.5,280.4z M104.7,279.9c-0.1-0.3,0-0.4,0.3-0.3C105.1,279.8,105,279.9,104.7,279.9z M108.7,278.9
		c-0.1-0.1-0.1-0.2-0.2-0.2c-1.2-1.6,1.5-4.7,2-3.8C110.6,274.9,108.9,278.5,108.7,278.9z M111.6,365c-0.1-0.4-0.2-0.8-0.3-1.2
		c0,0,0,0,0,0v0c0,0,0,0,0,0c0.3-0.5,0.7-0.7,1.2-0.5C112.3,364.1,112.1,364.7,111.6,365z M112,285.5
		C111.4,288.1,110.9,284.2,112,285.5L112,285.5z M112.6,363.9c0.1-0.3,0.2-0.6,0.4-0.9C113.4,363.4,113,364.3,112.6,363.9z
		 M112.8,260c0.2-0.6,0.4-1.3,0.6-1.8c0.2,0,0.5-0.2,0.8,0c0.1,0.2,0.1,0.4,0.2,0.6C114,259.7,113.4,260,112.8,260z M113.6,364.3
		c-0.4-0.1-0.4-0.5,0.1-1.2c0.1,0.1,0.1,0.2,0.1,0.3C113.9,363.8,113.8,364.1,113.6,364.3z M114.2,284.1c0.1-0.7,0.4-1,0.8-0.9
		C115,283.9,114.7,284.2,114.2,284.1z M113.9,261.2c0,0-0.1,0-0.2,0.1C113.2,259.5,117.2,260.1,113.9,261.2z M119.5,329.4
		c0.1-2,0.9-3.1,2.1-3c-0.2-0.1-0.2-0.1,0.6,0.1C122,328.2,120.6,329.4,119.5,329.4z M123.2,274.1
		C123.2,274.1,123.2,274.1,123.2,274.1C123.2,274.1,123.2,274.1,123.2,274.1C123.2,274.1,123.2,274.1,123.2,274.1
		c0.1,0.1,0.1,0.2,0,0.2c-0.1,0.8-1.1,2-1.4,2.8c-0.7-1.5,0.5-1.6-0.2-2.8C122.2,274.3,122.7,274.2,123.2,274.1z M120.2,250.1
		c0,0,3.3-1,2.1,0.9c-0.2,0.4-0.5,0.9-0.8,1.5c0,0-0.1-0.1-0.1-0.1c-1.1-1.1-1.9-2-2-3.6C119.5,249.2,119.7,249.8,120.2,250.1z
		 M119.5,255.8c-0.2,0.1-0.3,0-0.3-0.6C119.3,255.4,119.4,255.6,119.5,255.8z M118.3,274.2c-0.2-0.3-0.2-0.6,0.1-1
		C118.7,273.7,118.6,274,118.3,274.2z M118.3,239c0,0.2,0,0.4,0,0.6C117.6,239.8,118.2,238.8,118.3,239z M118.6,327.5
		c-0.1,0.4,0.6,2.3,0,2.3c-0.3-0.2-0.4-0.7-0.2-1.3v0c0,0.4-0.3,0.2,0,0c-0.3,0.2-0.6,0.4-1,0.6
		C117.6,327.8,117.9,327.9,118.6,327.5z M117.4,259.3c-0.1,0.3-0.6,1.8-0.9,0.5C116.7,259.4,117,259.2,117.4,259.3z M116.6,255.8
		c-0.1,0.3-0.3,0.3-0.4,0.1c0,0,0,0,0,0c0,0,0,0,0-0.1c0-0.1,0-0.1,0.1-0.2C116.4,255.4,116.5,255.5,116.6,255.8z M109.2,244.1
		c0.9-0.7,4.1-1.4,4.6-2.7c0.3-0.1,0.6-0.2,0.9-0.3c0.2-1.5-1-0.4-0.9-1.9c0.1-1.5,2.9,1,2.4,2.6c0-0.1-3.1,2.9-0.7,3
		c0,0,0.1,0,0.1,0c-3.3,0.9-6.5,1.1-9.4-0.9C106.3,242.7,109,240,109.2,244.1z M104.6,263.8c0.7-1,1.6-1.9,2-3.1
		c0.8-2.2,3.4-2.3,4.3-0.3c0.2,0.5,0.5,0.8,0.6,1c-0.3,1.1-0.9,1.8-1.9,2.2c0.2,0.8,0.6,2.1,0.2,2.9c0,0,0,0,0.1,0
		c0.3-0.2,0.5-0.1,0.7,0.3c-0.3-0.1-0.5-0.2-0.7-0.3c0,0-0.1,0-0.1,0.1c0,0,0-0.1,0.1-0.1c-1.6-0.9-1.1-2.9-3.5-0.9
		c-1.2,1-3.5,0.3-1.5-1.4C104.8,264,104.7,263.9,104.6,263.8z M101.9,230.6c1.9-1.5,1.9,3.1,1.7,4.8c0.2-1.3-1-0.9-0.1,0.4
		C102.6,234.3,99.7,232.3,101.9,230.6z M100.4,245.4C100.4,245.4,100.4,245.4,100.4,245.4C100.4,245.4,100.4,245.4,100.4,245.4
		L100.4,245.4C100.4,245.4,100.4,245.4,100.4,245.4c0.1-2.1,3.4-0.7,4.1-0.5c-0.7,6.3-1.6,1.9-3.8,0.6
		C100.5,245.5,100.4,245.4,100.4,245.4C100.4,245.4,100.4,245.4,100.4,245.4C100.4,245.4,100.4,245.4,100.4,245.4
		c0,0.7,0,1.4-0.6,1.5C99,247.1,99.6,245.4,100.4,245.4z M97.3,244.5c-0.8,0.7-0.9,0.7-1.6-0.8C96.3,243.4,96.8,243.7,97.3,244.5z
		 M95.1,234.2c-0.2,0.6-0.5,0.6-0.7,0C94.7,233.4,94.9,233.4,95.1,234.2z M94.7,271.3c-1.5-3.7-1.6-7.7-2.6-11.8
		c-0.3-1.3,0.3-3.2,1.5-2.5c1.9,1.3,0.8,5.2,0.4,7.2c-0.4,2,1.9,6.2,3.6,4.3c1.1-1.2,3-0.2,4.6,0.8c-0.8,1.3-2.5,1.9-3.3,3.2
		c1.3-0.4,2.8-1.3,3.7,0.2c0.3-0.4,0.6-0.7,0.9-1.1c0.1,1.1,0.3,2.3,0.4,3.4c0.6-0.9,2.2-0.9,1.4,0.9c-0.4,0.8-1.7,2.7-2.3,3.2
		c-0.4-0.8,0.2-1.6,0.2-2.4c-0.4,0.4-0.7,0.7-1.1,1.1c0.5-1.3,0.2-2-0.9-2c0,0.7-0.2,1.2-0.6,1.5c2.4,2.7-3.8,1.4-4.2,1.7
		c-1.1,0.7-1.1,1.7-1.8-0.3c-0.5,0-0.9-0.1-1.3,0c0-1.4,0.3-2.5,2-2.2c1.5,0.3,2.4,2.3,4.3,0.2c-0.2-0.3-4-2.8-4.1-2.8
		c-1.7-0.3-3.5-0.3-4.9-1.4C92.3,270.7,92.8,271.8,94.7,271.3z M103.1,289c-0.4-1.5,0.6-2.4,1.1-3.4
		C104.9,287.2,104.5,288.7,103.1,289z M102,280.3c-0.2,0.8-0.5,1.1-0.9,1C101.2,280.5,101.4,280.3,102,280.3z M98.6,287
		c-0.2-0.8,0.2-1.2,0.7-1.4c0.2,0.8,0,1.3-0.6,1.6C98.8,286.9,98.5,286.6,98.6,287z M88.2,267.9c1.2-3.4,1.7,3.4,2.3,3.8
		C89.1,276.2,87.4,270.2,88.2,267.9z M90.1,279.1c-0.1,0.2-0.2,0.4-0.4,0.4C89.8,279.3,89.9,279.2,90.1,279.1
		C90.1,279.1,90.1,279.1,90.1,279.1z M85.5,282.8c0,0.2,0.1,0.4,0.1,0.5c0.2,1.3,0.1,2.5-0.4,3.7C84.3,284.7,83.4,283.8,85.5,282.8z
		 M87.5,287.5c-0.3,0.9-0.4,1.9-0.3,2.8c1.8-4.3,3.2,3.4,5.3,4.9c0.6-3-0.5-9.4-2.4-11.3c-1.6-1.5-1.8-2.7-0.8-4
		c0.6,0.3,0.9,0.7,0.5,2.1c-0.2,0.7,1.5-0.4,2.4-0.4c0.1,0.2,0.3,0.3,0.4,0.5c-0.5,1.6-1,4.3,0.9,3.4c1.4-0.7,0.4-0.7,1.2-2.1
		c0.9-1.7,0.9,0.6,1.1,1.1c0.3-0.4,2.5-2.6,2.4-0.4c0,0.5-2.5,2.2-3,2.7c0.2,0.6,0.5,0.7,1,0.3c0.1,0.6,0.1,1.2-0.1,1.8
		c0.7,0.3,0.9-1.4,1.7-1c0,0.6-0.2,1-0.5,1.4c1.2,0.9,5-2.4,3.5,2.3c1.2-0.4,2.7-0.4,2.9,1.3c0.6,0.2,0.5-1.3,1.2-1
		c0.4,1.2,0,3.4-0.6,3.9c-1,1-0.6,2.1-1.5,3c1,0.8,1,0.9,1.2,2.6c1.2-1.5,1.7-1.3,3.2-1.2c-0.7,1.3-1.8,1.5-2.5,2.7
		c2.8,2.8-2.4,1.4-2.8,1.5c-0.2,0-1.3,0.6-1.3,0.2c-0.1-0.8-0.2-2-0.9-0.7c-0.9,1.5-3.5,0.2-4.7,0.3c-1,0.1-2.9-0.1-3.8,0.3
		c-0.1-0.4-0.5-0.7-1-1c-2.6-1.2-7.4-9.6-7.2-13.5C85.5,290.2,85.1,288.2,87.5,287.5z M80.4,231C80.7,230.3,80.9,231.4,80.4,231
		L80.4,231z M80.4,221c-0.7-1.7-1-3.5-1-5.5C80.9,213.8,80.9,219.9,80.4,221z M78.4,221.6c0.5,1.3,0.6,2.4,0.3,3.3
		C77.9,223.1,77.8,222,78.4,221.6z M74.4,305.5c1,1.3,1.1,2,0.3,3.5C74.5,307.6,73.8,306.8,74.4,305.5z M67.5,311.8
		c1-1.6,3.4,7.8,4.2-0.4c2.1,0.1,1.3,5.1,3.6,1.2c0.7-1.2,1.1-3,1.6-4.4c0.3,2,0.5,5,1.1,6.7c2.4-6,0.9,8.4,3.8,0.6
		c1.8,0,0.2,2,2.6,2c0.5-0.3,1.1-3.6,1.7-1.1c0.7,2.8,1.5-0.6,1.9-1.4c1.6-3.9,3-0.6,2.5,2.4c1.9-0.7,1.6,0.5,3.7-0.8
		c-1.4-2.9-2.8-5.8-4.2-8.7c0.2-0.5,0.5-1,0.8-1.5c0.1,0,0.2,0,0.3,0c1.5,0.1-0.1,1.7,0,2.7c0.7-0.6,1.7-2.5,2.6-2.3
		c1.2,0.3,0.2,1.9,1.6,0.2c0.5,0.3-0.8,3.5-0.1,4.9c1.2-0.8,0.7-2.2,1.8-2.4c0.6-1.7,1.6-2.4,2.9-2.1c-0.6,1.9-1.4,2.5-1.8,4.8
		c0.5,0.2,1,0.3,1.5,0.5c0.5-0.6,0.8-2.1,1.3-2.5c2.1,1.6-2.8,4.5-0.1,6.1c-1.7,3.8-5.5,1.1-8.1,1.5c-1.4,0.3,0,4.9-2.1,4.5
		c-1.1-0.2-1.2,1-2,1.5c-0.9,0.6-0.5-1.5-1.9-1.2c-2.3,0.6-1.5,2.8-4.1,1.5c-1.5-0.8-0.8-0.5-1.8,0.3c-0.7,0.5-0.9-1.4-1.5-1.7
		c-1.4-0.9-3.8,1.6-4.3-0.9c-0.1-0.4-1.1-0.5-1.4-0.9c-0.9-1.1-1.3-0.9-1.6,0.6c0.3,0,0.5,0.1,0.7,0.5c0,0.7-1.9,1.9,0.3,1.9
		c1.2,0,1.1,0.8,0.6,1.8c-1.2-0.2-2.1-0.6-2.7-1.3c-1.2-1.5-2.4-3.2-2.9-5.4C67.6,318.5,67.2,312.2,67.5,311.8z M70.8,362.1
		c-0.3,0.8-0.6,0.8-1,0C70.2,361.2,70.5,361.2,70.8,362.1z M68.7,358.3c-0.4,1-0.9,1.6-1.6,1.9c-0.1,0.1-0.2,0.1-0.4,0.2
		C66.4,358.5,67.6,356.4,68.7,358.3z M66.3,373.2c1.2-0.3,6.5,0.8,6.2,3.9c-1.4,0.8-3.2,0-4.3-1c-1.2-1.1-2.2-2.5-2.6-2
		C65.5,373.1,65.7,372.8,66.3,373.2C65.8,372.6,66.7,373.1,66.3,373.2z M65.4,315.7c0.4,0.6,1.1,2,0.1,1.5c-0.5-0.4-0.6-1-0.3-1.7
		C65.1,316.2,65.6,316,65.4,315.7z M65.4,220.7c-1.7,0.6-3,0.3-4.3,0.1C62.4,219.6,63.7,219,65.4,220.7z M74.9,133
		c0.6,1.1,0.7,2,0.1,2.8C74.4,135,74.6,134.2,74.9,133z M66.5,165.8c0.4,0,0.4,0.3,0.1,0.9C66.2,166.7,66.2,166.3,66.5,165.8z
		 M63.7,160.1c-0.6,1,0.8,0.5,0.3-0.4c0.6,1,2.8,4,1.7,5.7C64.4,164.1,62.2,162.6,63.7,160.1z M57.4,171.9c0.7,0.8,0.9,1.6,0.7,2.7
		C57.1,173.9,57,173.8,57.4,171.9z M54.8,186.9c-0.2,0.8-0.4,0.8-0.6,0.2C54.3,186.4,54.6,186.3,54.8,186.9z M42.1,345
		c0-0.1-0.1-0.2-0.1-0.3c0.6-0.4,1-0.2,1.4,0.6C43.6,346.2,42.5,345.8,42.1,345z M43.6,314.8c-1.2-1.6,0.3-5.2,2.1-4.1
		c-0.5,1.5-1.1,3-1.6,4.5C43.8,315.1,43.7,315,43.6,314.8z M44.3,304.2c0.3-0.2,0.6-0.4,0.9-0.6C45.5,304.9,44.5,305.3,44.3,304.2z
		 M44.6,315.6c0.2-0.7,0.7-4.1,1.8-3.9c0.1,0.5,0.2,1,0.3,1.4c-0.1-0.6,0.9-0.1,0,0C50.2,313,47,318.8,44.6,315.6z M48.1,396.9
		c0-0.7,0.3-0.7,0.8,0C48.8,397.4,48.5,397.5,48.1,396.9z M45.4,308.3c-2.2-3,0.6-2.6,1.4-6.7c0.2,0.2,0.3,0.4,0.3,0.5
		c1,2.2,0,8.4,1.9,2.6c0.6-1.8,1.7,0.9,1.6,1.8c-0.3,2.3-1.4,4.5,0.5,6.2C48.8,313.8,47,310.5,45.4,308.3z M52.1,317.5
		c-0.3-0.9-0.1-1.6,0.6-2.2C53.3,316.4,52.9,318.9,52.1,317.5z M51.5,307.2C53.5,305.8,53.9,309.4,51.5,307.2L51.5,307.2z
		 M53.1,192.8c0.9,3,0.7,3.6-1,3.6C52.1,195,52.6,194,53.1,192.8z M53.3,234c-0.5,0.5-0.9,0.6-1.4,0.3c0,0.1-0.6,0.5-0.1,0
		c-1.6,1.5-2,1.9-2.6-1.1C50.6,234,51.6,231.3,53.3,234z M49.4,187.8c3.1-3,1,6.5,0.9,7.4C49.1,193.9,47.6,189.7,49.4,187.8z
		 M49.4,229.3c-0.9-0.2-1.3-0.9-1.2-2.2C49.6,226.9,49.7,227.1,49.4,229.3z M44.8,143.1c0.5,0.3,0.8,0.6,0.5,1.4
		C44.8,144.2,44.5,143.9,44.8,143.1z M42.7,198.5C43,197.8,43.5,198.9,42.7,198.5L42.7,198.5z M41.4,144.5c0.6-0.2,1.5,0,1.1,1.1
		c-0.6,0.9-1.1,0.6-1.3-1C41.3,144.6,41.4,144.5,41.4,144.5z M47.7,235.5c0.1,0,0.2,0,0.6,0.1c0.6,2.4-6.3,1.8-7.1,1.1
		C43.6,235.3,45.2,235.3,47.7,235.5z M38.5,228C37.9,227.7,38.8,226.8,38.5,228L38.5,228z M24.2,235.1c0.6-1.8,0.8-2,1.7-2.2
		C25.7,235.7,25.5,235.9,24.2,235.1z M24.7,230.4L24.7,230.4c0.2,0.4,0.4,0.9,0.6,1.4c-0.1,0.3-0.3,0.4-0.5,0.5
		C23.9,231.6,23.9,230.9,24.7,230.4z M26.3,218.4c-0.2-0.5,0-0.6,0.5-0.6C26.9,218.3,26.7,218.5,26.3,218.4z M27.9,236.8
		c0.6-0.7,1.1-0.5,1.4,0.4C28.6,238.2,28.2,237.9,27.9,236.8z M29.8,237.7c0.6,0.6,0.6,1.2-0.1,1.9C29,238.8,29.1,238.2,29.8,237.7z
		 M32,333.8c0.3-0.4,0.5-0.4,0.7,0.1C32.5,334.5,32.3,334.5,32,333.8z M37.2,328.4c-0.4,1-0.6,1.7-1,2.7
		C35.5,329,35.7,328.6,37.2,328.4z M36.1,312.4c-0.3,0.3-0.4,0.1-0.5-0.7C35.9,311.5,36.1,311.7,36.1,312.4z M36.6,314.7
		c-0.7,0.5-1.3,0.9-2.1,1.5C34.8,314.2,35.2,314,36.6,314.7z M32.7,332.8c-0.2,0-0.3-0.1-0.2-0.1c-1.3-0.5-4.1-2.8-0.9-3
		C33,329.7,34.9,332.3,32.7,332.8z M31.4,329.6c-0.4-0.4-0.7-0.8-1-1.3C31.8,327.2,32.1,327.6,31.4,329.6z M30.6,228.1
		c0.4,0.2,0.4,0.6,0.1,1C30.4,228.9,30.3,228.5,30.6,228.1z M30.4,232.9c-0.3-0.1-0.2,0.5-0.1,0.4c0-0.1,0.1-0.2,0.1-0.2
		c0,0.1-0.1,0.2-0.1,0.2c-0.3,0.7-1.1,1.4-1.2,0.2C29.2,232.3,29.6,232.2,30.4,232.9z M22.7,129.3c0.7,0.3,1,1,0.9,2.1c0,0,0,0,0,0
		c0-0.8,0.3-0.7,0,0c0,0,0,0,0,0c2.4-4.8,5.1,2.4,6.4,4.4c-1.3,5.1-5.8-0.4-6.4-4.4c0,0,0,0,0,0c0,0,0,0,0,0
		C22.5,132.4,21.8,130.5,22.7,129.3z M22.5,152.1c0.6,0.4,0.7,0.9,0.2,1.5C22.1,153.1,22.1,152.6,22.5,152.1z M23.3,214.7
		c-0.1,0.6-0.2,0.7-0.3,0.7c-0.4,0.8-1.1,1.9-1.3,0.4C21.8,214.7,22.4,214.4,23.3,214.7z M24.9,221.1c-0.5,3.2-2.6-1.5-3.3-2.2
		C23.2,217.5,25.5,217,24.9,221.1z M22.3,238.6c-0.2,1.4,0,3.9-0.9,4.6c0.2-0.1-0.4-2-0.4-1.5c0,0.2,0.1,0.4,0.2,0.7
		c-0.1-0.3-0.1-0.6-0.2-0.7C20.7,240.2,20.8,238.8,22.3,238.6z M50.9,102.6c1.7-0.2,2.1,2.7,0.9,4.1c-0.5-1.1-1.4-1.9-1.2-3.3
		C50.6,103.4,50.7,103.1,50.9,102.6z M50.8,115c-0.3-0.5-0.4-0.9-0.8-1.5C51.3,113.3,51.3,113.4,50.8,115z M58.1,82.6
		c0.4,0.1,0.4,0.4,0.1,1C57.8,83.5,57.8,83.2,58.1,82.6z M54.6,90.3c-0.2,0.4-0.4,0.8-0.7,1.2C53.3,90.8,53.9,90,54.6,90.3z
		 M52.3,89.2c0.3,0.8,0.1,1.3-0.5,1.6C51.5,89.9,51.7,89.5,52.3,89.2z M41.7,62.3c0.7,0.9,0.8,2.1,1,3.8
		C41.5,65,41.7,63.6,41.7,62.3z M41.1,43.6c-0.1,0.5-0.2,0.9-0.4,1.7C40.2,44.2,40.3,43.8,41.1,43.6z M45.2,114.6
		c-0.3-0.3-0.5-0.5-0.8-0.7c0.4-0.8,0.8-0.8,1.1,0C45.5,114.2,45.4,114.5,45.2,114.6z M45.3,111.4c-0.1-1-0.2-1.9-0.3-2.9
		C46.3,109.2,46.3,109.8,45.3,111.4z M46.2,96.6c2.1-1.1,1.6,2.8,0.7,5.2c0.2,0,0.2,0.5-0.8,1.4C46,102.1,45.2,97.1,46.2,96.6z
		 M41.6,95.8c0.5-0.2,0.7,0.4,0.6,1.5C41.6,97.2,41.4,96.6,41.6,95.8z M40.1,103.9c1.4-1.7,2-6.7,4.7-6.2c0.1,1.2,1,6.6-0.3,7.2
		c-0.8,0.4-1.8,3.4-2.6,1.8c0.4-0.6,0.5-1.3,0.5-2.2c-2.5,0.3-1,9.5-4.7,6.5h0c0.8-2.6,1.1-3.6-0.4-5.7
		C36,103.5,38.7,101.4,40.1,103.9z M38.6,99c-0.1,0.8-0.1,1.1-0.2,2C37.9,100,38,99.6,38.6,99z M37,89.4
		C39.5,86.9,39.3,91.9,37,89.4L37,89.4z M34.6,111.4c-0.5-0.5-0.6-1.1-0.3-1.8C35,109.6,35,110.2,34.6,111.4z M35.7,58.4
		c0.6-0.6-0.7-0.3-0.2,0.2C30.2,52.6,38.7,55.4,35.7,58.4z M20.1,78C18.1,75,22,75.5,20.1,78L20.1,78z M28.4,112.8
		c-0.1-0.2-0.2-0.3-0.2-0.4C26.9,109.4,30.1,108,28.4,112.8z M28.1,52.9c1.2,0.8,4,1.6,2.3,4.2C30.1,56,24.7,55.3,28.1,52.9z
		 M22.6,61.9c1.6,3.4,2.3-0.9,4.1-1.1c1.4-0.1,1.4,9.4-0.1,7.6c0.2-3-1.8-3.5-3.6-3.5c-0.7,0.1-4.3-2.9-2.9-4c-0.3,0.2,0.1-0.6,0,0
		c0-0.7,0.2-1.3,0.6-1.6C19.2,63.2,21.9,60.3,22.6,61.9z M20.8,32.8c0.2,1.1,1,8.2,1,8.3c-1.2,0.9-1.9,1.3-2.6-0.3
		C17.4,37.5,19.4,35.4,20.8,32.8z M20,65.7c1.2-0.2,2.2,3.6,0.6,4.5c0.1,0,0.1,0.1-0.5,0.2C17.6,69.2,16.8,66.3,20,65.7z M17.3,40.3
		c0,1.9-0.1,2-1.5,2.1C16.4,41.7,16.8,41.1,17.3,40.3z M14.5,266.3c0.3,0.6,0.2,0.8-0.5,0.8C13.7,266.6,13.9,266.4,14.5,266.3z
		 M10.5,365.3c-0.1-1,0.2-1.6,1-1.8C11.6,364.6,11,364.9,10.5,365.3z M11.4,107.2c-0.1,1-0.1,1.8-0.9,1.9
		C10.4,108.1,10.3,107.3,11.4,107.2z M4.8,234.1c-0.3,0.2-0.5,0.3-0.8,0.4C3.7,232.7,4.8,234.1,4.8,234.1z M3.7,83.7
		C3.1,82.8,3.3,82,4,81.5C3.9,82.4,3.8,83,3.7,83.7z M3,56c0.1,0,0.2-0.1,0.5-0.1C5.9,64-0.5,57.2,3,56z M1.7,68.7
		c0.5,0.5,0.8,1.1,0.6,2.3C1.5,70.2,1.3,69.4,1.7,68.7z M2,286.1c-0.4-0.1-0.4-0.4-0.1-0.9C2.3,285.3,2.3,285.6,2,286.1z M2,82.4
		c0.3-0.4-0.4-0.5-0.3,0.2C0.7,76.6,3.5,80.8,2,82.4z M2.7,285.8c0-0.1,0-0.2,0-0.4C5.8,286.5,2.9,287.9,2.7,285.8z M10.1,359.7
		c0.2,0.4,0.1,0.7-0.4,0.9C9.4,360.1,9.5,359.9,10.1,359.7z M9.1,18c-0.2,0.8-0.3,1.3-0.5,2.1C8.1,19,8.2,18.5,9.1,18z M8.4,246.3
		c0.2,0.2,0.5,0.3,0.7,0.5C8.8,247.8,8,247.2,8.4,246.3z M8.9,357.9c-0.6,1.6-3.7,3.9-4.7,1.7C3.2,357.2,8.3,358.3,8.9,357.9z
		 M6.2,271.6c0.1-0.7,0.2-1.1,0.3-1.6C7,270.8,6.9,271.2,6.2,271.6z M7.5,283.7c-0.2,0.7-0.9,0.3-0.7-0.5
		C7,283.4,7.2,283.5,7.5,283.7z M7.9,266.8c-0.4,1.3-1.1,1.8-2,1.3C6.6,267.7,7.2,267.3,7.9,266.8z M6.4,224.2
		c-0.4-0.4-0.3-0.7,0-0.9C6.8,223.6,6.8,223.9,6.4,224.2z M6.6,56.6c0.1,1.3-0.3,1.9-1,2c-0.2-1,0-1.8,0.5-2.5
		C6.2,56.2,6.4,56.3,6.6,56.6z"/>
	<path class="st0" d="M598.1,383.1c-1-1.1-2.1-1.6-3.3-0.6c-1.9,1.6-4,3.7-5.6,5.6c0.8,0.7,2.1,2.4,3.2,2c0.9-0.4,1-0.1,1.7,0.5
		c-1.2,1-2.6,0.9-4,1.4c1,0.2,4.4,2.7,3,4.4c-1.2,1.4-2.3,1.1-3.7,1.6h48.1c-0.1-0.1-0.1-0.1-0.2-0.2c-1.5-1.3-1.2-0.9-0.3-2.5
		c0.1,0.1,0.1,0.2,0.2,0.2c0.6,0.8,1.3,1.6,1.9,2.4h9.9c0.6-0.5,1.2-1,1.5-0.6c0.2,0.2,0.3,0.4,0.4,0.6H693
		c-0.1-0.9,0.2-2.1,0.3-2.8c1.2,0.8,2,1.8,2.9,2.8H758c0-0.2,0-0.4,0-0.7c0-0.9,1.6,0,2.6,0.7h20c0.1-0.2,0.2-0.4,0.3-0.5
		c0.4-0.6,1.6,0,2.3-0.3c1.4-0.6,2.2-2.3,3.1-3.6c2.2-3.4,3.7-6.3,2.1-10.5c-0.8,3.1-5.4-2.7-4.8,3.1c-0.6-0.2-2.6-1.7-2.9-1.1
		c-1.2,1.7-1.6,3.1-3.3,4.3c-2.7,1.9-6.1,3.5-9.1,2.5c0.2-0.1,3-1.8,3-1.9c0-0.1-1.4-1.8-1-1.9c1.1-0.4,2.2-0.6,3.3-0.9
		c-1-0.6-1.9-1.1-2.6-2.2c-0.5-0.7,0.7-1,0.7-1.9c0-0.7-3-1.6-2.6-2.1c0.6-0.7,1.5-2.9,2.5-2.8c0.9,0.1,1.8-0.2,2.6-0.8
		c1.8-1.4,2.5-2.9,2.8-5.3c-1.5,0.6-3.2,2.2-4.6,0.6c-1.2-1.4-2.5-3.3-3.3-4.9c0.4-0.2,2.8-0.9,2.9-1.6c0.3-1.8,0.2-3.7,0.2-5.5
		c-1.1,0.7-2.3,1.3-3.4,2c0-2.9,0-5-1.7-7.3c-0.7-1-3.4-3-4.4-2.2c-1,0.8-0.5,3-0.7,4.2c-0.5,3.9-3.7,0.1-5.4,1.9
		c-0.5,0.5,0.6,1.9,0.1,2.9c-0.4,0.9-1.3,1.3-2,1.8c-0.9,0.7-0.3,1.6-0.3,2.7c-0.1,1.2-2.6,2.1-3.4,2.5c-1.1,0.6-3.4,1.1-2.7-1.1
		c0.5-1.8,0.7-3.8,1.2-5.6c0.7-2.8,2.2-3.9,2.5-7.2c-2.6-0.1-4.7-0.1-7.2,0.9c-1.8,0.7-2.8-0.5-4.1-1.8c1.5-0.1,2.4-0.7,3.7-1.7
		c0.7-0.6-1.6-0.7-1.6-0.8c-0.4-0.3-0.4-3.6-0.7-4.3c-0.7,0.7-2.5,3.3-3.4,3.3c-0.6,0-1.6-1.5-2-0.3c-0.2,0.7-0.9,1.9-0.6,2.7
		c1.2,3.4-1.1,1.6-2.5,3.4c-0.9,1.1-4.7,4.6-4.6,5.8c0.3,2.9,1.8,2.8,0.2,5.6c-1.6,2.7-3.5-1.2-4.5-2.6c-1.7-2.4-1.4,2.4-2,3.6
		c-0.9,1.7-2.5-1.2-3.4-1.5c0.1,2.9,1.8,3.5,1,6.8c-1.4-1.3-1.2-2.5-2.3-3.8c-1-1.2-2.1,0.6-3.2,0c-1.8-1.1,0.7-2.8,1.2-3.9
		c0.8-1.6,0.9-3.7,1.1-5.6c0.6-4.8-4.5-3.4-4.3-7.7c-2.8,0.2-2.5,7.1-5.4,6.1c1.4-4.1,3.7-9.5,1.3-13.6c-1,2.2-1.2,4.7-1.5,7.2
		c-1.2-2.2-2.4-3.9-4.1-5.8c-0.6,1-1,1.8-1.4,2.9c-1.2-1.6-1.6-3.8-2.7-5.4c-1.1,1.4-0.5,4.1-0.8,6c-0.4,2.4-1.6-0.2-2-1.3
		c-0.3-1.1,1.2-2.5-0.2-3c-1.3-0.5-1.6-2-2.4-3.3c-0.6,0.9-1.2,1.8-1.8,2.8c-0.4-1.1-0.8-2.2-1.1-3.3c-2.3,2.3-3.8,3.9-2.9,7.8
		c0.9,3.8-1.5,1-2.4-0.5c-0.1,1.7-0.4,3.1-0.8,4.7c-0.9-0.4-1.5-0.8-2.3-1.5c-0.1,1.6-0.5,3.1-0.9,4.6c-1.1-1.6-2.2-2.9-3-4.8
		c-0.7,1.8-0.8,2.9-0.8,4.9c-1.8-0.9-1.7-4.9-2-7.1c-0.2,0-0.3,0-0.4,0c-0.1,1.2-0.5,2.4-0.5,3.7c0,1.2,0.8,2.2,0.7,3.4
		c-0.1,1.9-1.5,4.7-2.2,6.5c-1.4-1.8-1.6-3.4-2.7-5.3c0.1,2.8,0.7,4.2-1.1,6.2c-0.8-1.6-1.6-3.3-2.4-4.9c1.4,2.8-1.1-2.9-1.2-1.3
		c-0.1,2.1-0.4,2.5,0.9,4c0.6,0.8,1.2,1.7,1.4,2.8c0.2,1.4-1,2.8-0.7,3.9c0.2,0.9,1.2,0.2,1.5,1c0.3,0.8-2.1,2.9-2.4,3.2
		c-0.5-1.4-1-2.8-1.6-4.2c-1.1,3-2.9,8.4-5.3,9.8c-0.2-1.1-0.3-2.1-0.4-3.3c-3.1,1-0.7,3-2.2,4.7c-1.2,1.3-2.5-0.4-3.7,0.3
		c-1.1,0.6-1.5,5.5-1.7,6.8c-0.4,2.3,3.7,1.6,4.9,2c-2.1,1.9-5.4,0.9-8,1.3c2.2,0.9,3.4,1.3,5.4,3.1c-1.9,1.5-2.7,2.6-5.2,1.7
		c-1.8-0.7-2.1-2.8-2.9-4.6c-1.6,1.7-1.4,3.8-3.9,3.5c-1.6-0.2-3.8-0.7-1-1.8c2-0.8-1.6-3.3-2.1-3.8c-1.7-2-2.8-0.4-4.7-1.1
		c0.3-0.7,2.2-2,2.1-2.8c-0.1-1.8-1.2-1-0.9-3.3c1.3,0.4,2.1,0.5,2.9,1.8c-0.2-3.6,2.5-2.8,4.3-4.5c-2.2-0.4-4.4-1-5.5-3.4
		c1.7-0.5,2.7-0.6,4.3-0.2c-3.7-5,3-6,5.3-8.8c-1.7-0.6-2.7-0.9-4.4-0.5c1.4-1.7,1.8-4,3.1-5.5c1.7-1.9,2.5-3.1,3.3-5.6
		c-1.6,0-2.3,0-3.5,1.3c-1.1,1.1-0.1,0.8-1.8,0.1c-1.8-0.7-5.1,0.3-6.9,0.8c-1.2,0.3-6,1.6-5-1.5c0.6-2,1.1-3.2-0.8-3.8
		c1.3-1.1,1.7-3,1.3-5c-0.4-1.6-2.7-1.9-3.8-2.3c-4.5-1.5,1.6-5.9,0.6-9.6c-0.8,0.8-1.4,2.4-2.6,2.3c-0.9,0-1.8-0.6-2.7-0.2
		c0.4-0.7-1.1-1.1-1-1.8c0-0.2,2-2.8,2.2-3.3c-2.9,1.7-1.8-3-2.1-5.6c-2.9,2-7.2,5-2.5,8.2c-1.3,0.7-4,2-4-1.1
		c0-1.4-0.2-2.7-1.5-2.4c0.3,1.1,0.8,3.2-0.1,4.2c-1.4,1.7-1.5-1-2.4-1.6c-2-1.2-3.5-1.9-0.5-3.5c-0.8-1-4.7-1.4-5.8-0.2
		c-1.8,1.9-1.2,6.1,0.7,7.4c-0.8,0.4-5,0.4-4.5,2.1c0.4,1.2,0.7,2.2,0.9,3.5c-0.3,0-1.5,0.6-1.8,0.2c-1.5-2.1-4.4-1.6-6.4-2.1
		c-1.2-0.3,0.4-0.9,0.3-1.8c0-1.2-1-2.1-1.5-3c-2.1,4.9-3,7.7,1.2,11.1c-1.8,2.7-2.7,0.4-4.7-0.5c1.1,2,2.9,2.7,4.6,3.9
		c1.2,0.9,0.4,2.9,2.5,2.2c3.2-1,9.3,1.3,10.2,5.3c-1.9-1.2-3.9-1.1-6-1.3c-1.4-0.1-1.9,1.3-3.4,1.6c-1.7,0.3-3.8-1.4-5.2,0.2
		c-0.8,0.9-1.2,2.3-2.1,3.2c-1.8,1.9,1.2,2.6,2.3,3.5c1.6,1.4,2.1,2.8,3.9,1.9c1.8-0.8,3.8,0.1,5.7-0.6c1.6-0.7,1.8-1.5,3.6-1.6
		c-0.5,0.6-0.7,1.3-0.7,2.1c1.4-0.1,3.4-1.4,3.8,1.2c0.4,2.5,0.2,5.3,0.5,7.8c0.4,3.9,0.2,4.4-3,3.5c-2.8-0.8-5.2-1-8-0.8
		c0.6,1.3,1.1,2,2.1,3C600.2,382.7,598.7,383.7,598.1,383.1z M755.6,387.4c-0.8-0.6-1.5-1.3-2.3-1.9c1.6-1,2.2,0,3.7,1.1
		C756.5,386.9,756,387.2,755.6,387.4z M759.1,361.4c0.6-0.8,3.3,2.3,4,2.9c-0.6,0.7-1.3,1.4-1.9,2
		C760.7,365.4,758.4,362.2,759.1,361.4z M755.2,368.5c0.4-0.8,2.7-4.9,3.7-3.9c1.9,2.1-2.6,3.7,0.3,5.4c0-0.2,0.1-0.4,0.1-0.6
		c0.6,0.1,1.2,0.3,1.8,0.4c-0.7,2.3-0.7,3.8-2.9,2.6C757.3,371.9,754.1,370.5,755.2,368.5z M748,378.2c1.5-1.2,3.5-1.4,4.9-2.8
		c1.6-1.6-0.2-3.6-0.3-5.5c1.9-0.1,2.3,1.9,3.2,3.9c1.4,2.9,1.6,3.9,1.5,7c-0.1,2.8-2.2,2.6-4.2,3.2c-0.1,0-0.1,0-0.1-0.1
		c-1-0.4-3.1-2.6-3-0.6c0,1-0.9,2.6-1.7,1C747.9,383.1,746.8,379.2,748,378.2z M742.5,391.7c-0.6,0.4-1.2,0.8-1.8,1.3
		c-0.4-0.4-0.8-0.8-1.2-1.2C741,390.5,741,390.2,742.5,391.7z M726.5,382.5L726.5,382.5c1.9,0.4,2.8,0.4,4,2.2
		c-2.3,0.5-3.6-0.6-5.8-1C725.3,383.3,725.9,382.9,726.5,382.5z M726.9,394.2c-0.4,0.4-0.7,0.7-1.1,1.1c-1-0.5-2.1-0.9-3.1-1.4
		C724.9,392.7,725.2,392.4,726.9,394.2z M718.2,388.5c0.7-0.1,1.3-0.2,2-0.4c0,0,0,0,0,0h0c0,0,0,0,0,0c0.6,0.3,1.1,0.7,1.7,1
		C720.3,390.2,719.9,389.6,718.2,388.5z M719.4,375c0.7,1.2,1.3,2.3,2,3.5c-1.3,0.6-2.5,1.2-3.8,1.8c0,0,0,0,0,0
		c0.4-0.2,0.2-0.1,0,0c0,0,0,0,0,0c0,0,0,0-0.1,0c-0.1,0-0.1,0-0.1,0c-1.6,0.9-2.5,0.5-4.3-0.1c1.7-1,2.5-0.4,4.3,0c0,0,0,0,0,0
		c0,0,0,0,0,0c-0.1-0.8-0.9-2.2,0-2.7C719,377,718.9,377.1,719.4,375z M716.7,372c0.5,1,0.9,2.1,1.4,3.1c-1.4,0.6-3.2,2-4.6,1.1
		C714.5,374.8,715.6,373.4,716.7,372z M715.7,362.1c-1.3,0.9-2.7,2.9-3.9,1.4C713.3,362.4,714.2,360.8,715.7,362.1z M704.9,351.6
		c0.3,0.6,0.6,1.1,0.9,1.7c-0.2,0.8-2.3,9.1-3.6,6.2C701.4,357.6,703.7,352.8,704.9,351.6z M692.1,382.5c1-2.3,1.4-3.7,3.4-4.8
		c0.1,2.3,0.6,3.2,1.7,5c0.8,1.3,0,1.6-0.6,2.7c-0.5-1.4-0.4-2-1.5-1.4C693.3,384.9,693.3,384.4,692.1,382.5L692.1,382.5z
		 M671.8,366.2c0.7,1.2,1.4,2.3,2,3.5c0,0,0,0,0,0v0c0,0,0,0,0,0c-0.4,0.4-0.7,0.8-1.1,1.2C671.5,368.9,670.5,368.3,671.8,366.2z
		 M666.9,382.8c0.3-0.6,1.9-1.4,1.9-2.2c-0.1-0.9-1.2-0.7-1.3-1.6c-0.1-1,1.5-1.5,2-1.8c0.5-0.3,1.1,4.1,1.4,4.6c0,0,0,0,0,0v0
		c-0.2,0.1-0.3,0.2-0.4,0.2C669.3,382.8,665.6,385.3,666.9,382.8z M654.8,388c-1.1-0.1-1.3-1-1.3-2.1c0,0.1,0,0.2,0,0c0,0,0,0,0,0
		c0-0.4,0.1-1.5,0.1-1.5c0.1-0.7,0.2-1.3,0.3-2C655.1,384.5,658.9,388.5,654.8,388z M631.5,364.8
		C631.5,364.8,631.5,364.8,631.5,364.8c1.2-1.2,2.1-2.9,3.2-0.9c0.4,0.8-1.2,2.1-1.6,2.5C632.9,366.6,631.5,364.9,631.5,364.8
		C631.5,364.8,631.5,364.8,631.5,364.8L631.5,364.8z M632.4,393.1c-1.5-0.2-2.7-1.5-4-1.6c-1.2-0.1-1.3,1.4-2.6,0.9
		c-3.5-1.4-0.6-2.9,1.4-4.1C630.3,389.5,631.6,389.4,632.4,393.1z M623.1,348.8c1.3-0.2,7.3-1.1,4.2,2.7c-1.9,2.2-4.1-0.4-5.3-2.2
		C622.8,349.7,623.2,349.5,623.1,348.8z M601.9,349.7c2.3-1.3,2.8-0.9,5.2,0.4C605.9,351.2,602.9,351.6,601.9,349.7z M612.9,377.1
		L612.9,377.1c-0.6-0.3-1.1-0.7-1.7-1c1.7-1.6-0.6-2.1-0.6-3.6c-0.1-2.4-1.1-4.6,0.2-6.7c0.6-1,2.8,4.9,3,5.5
		C615,373.8,614,374.8,612.9,377.1z M614.8,345.5c1.6-1,2.7-2.5,4.2-1.2c-1,0.7-2,1.4-3,2.1C615.6,346,615.2,345.7,614.8,345.5z
		 M619.3,356.9L619.3,356.9c-0.1,0-0.1-0.1-0.1-0.1c-0.8-0.5-1.5-1-2.3-1.6c0.9-1.3,1-2.7,2.4-1.4
		C620.3,354.9,619.6,355.6,619.3,356.9C619.2,356.9,619.3,356.9,619.3,356.9z M608.3,341.6c-2.5-4.2,2.9-2.2,4.2-2.6
		c3.1-0.8,4.5-1.8,7.5-0.5c-2.4,2.3-5.1,3.9-7.5,6C609.9,346.8,609.7,344.1,608.3,341.6z"/>
</g>
</svg>
